<?xml version="1.0" standalone="no"?>
<!DOCTYPE svg PUBLIC "-//W3C//DTD SVG 20010904//EN"
 "http://www.w3.org/TR/2001/REC-SVG-20010904/DTD/svg10.dtd">
<svg version="1.0" xmlns="http://www.w3.org/2000/svg"
 width="1280.000000pt" height="819.000000pt" viewBox="0 0 1280.000000 819.000000"
 preserveAspectRatio="xMidYMid meet">
<metadata>
Created by potrace 1.15, written by Peter Selinger 2001-2017
</metadata>
<g transform="translate(0.000000,819.000000) scale(0.100000,-0.100000)"
fill="#000000" stroke="none">
<path d="M8620 8164 c-6 -14 -10 -38 -10 -53 0 -63 81 -255 149 -355 17 -24
31 -49 31 -55 0 -5 6 -16 13 -23 7 -7 37 -49 67 -93 195 -290 545 -729 701
-880 22 -22 21 -61 -8 -204 -8 -41 -15 -84 -15 -95 -1 -23 -85 -116 -105 -116
-7 0 -13 -9 -13 -20 0 -11 -4 -20 -10 -20 -5 0 -16 -15 -24 -34 -8 -19 -28
-44 -45 -57 -34 -25 -39 -44 -16 -53 12 -4 13 -10 4 -30 -9 -19 -7 -35 6 -76
10 -29 18 -64 18 -78 0 -39 -36 -62 -95 -62 l-49 0 8 38 c4 20 7 72 6 115 -1
91 -16 119 -123 229 -70 71 -106 88 -192 88 -39 0 -56 6 -91 33 -24 19 -66 39
-93 46 -81 21 -78 19 -64 36 7 9 11 16 9 18 -2 1 -13 7 -24 13 -11 6 -20 17
-20 25 0 8 -7 52 -15 97 l-14 84 -30 -6 c-17 -3 -80 -13 -141 -21 -60 -9 -116
-20 -124 -24 -11 -5 -14 -23 -12 -65 2 -45 0 -57 -11 -53 -7 2 -12 13 -11 25
4 30 -19 43 -81 45 -31 1 -56 5 -56 9 0 4 -54 28 -65 28 -1 0 -14 -11 -29 -25
-15 -14 -39 -28 -54 -31 -15 -4 -43 -22 -62 -41 -19 -18 -39 -33 -44 -33 -6 0
-27 -12 -47 -26 -32 -22 -49 -26 -111 -26 -51 0 -84 -6 -110 -19 -21 -11 -43
-19 -51 -19 -16 0 -57 -41 -57 -58 0 -6 -18 -23 -41 -38 -40 -25 -41 -26 -36
-72 3 -26 8 -58 12 -72 5 -21 1 -28 -29 -44 -19 -10 -39 -15 -45 -11 -6 3 -14
-1 -17 -9 -4 -9 -18 -16 -33 -16 -15 0 -55 -11 -89 -25 -34 -14 -86 -30 -115
-36 -344 -70 -824 -347 -1155 -666 -117 -113 -124 -118 -160 -115 -34 3 -44
-3 -122 -74 -124 -112 -158 -138 -229 -175 -194 -103 -218 -110 -426 -130
-279 -26 -666 46 -912 169 -144 73 -251 154 -403 304 -168 165 -174 168 -333
168 -123 0 -261 17 -577 71 -379 64 -622 119 -753 170 -62 24 -92 24 -128 -2
-36 -25 -64 -18 -84 22 -9 16 -17 29 -18 30 -1 0 -39 4 -85 8 -95 9 -109 17
-95 58 5 15 7 36 5 45 -3 16 -6 16 -32 3 -64 -33 -118 -7 -127 61 -3 27 0 51
11 72 9 18 15 32 12 32 -55 0 -760 88 -996 125 -211 32 -433 59 -449 54 -7 -3
-24 -32 -36 -65 l-23 -61 50 -12 c27 -6 66 -11 86 -11 20 -1 51 -7 67 -14 18
-8 55 -11 95 -9 84 6 146 -15 143 -46 -4 -29 48 -51 118 -51 49 0 51 -1 37
-17 -9 -10 -23 -32 -31 -49 -14 -26 -14 -34 -3 -49 7 -11 20 -16 29 -12 8 3
140 -30 293 -74 403 -115 447 -129 469 -148 11 -10 29 -22 40 -26 17 -7 15 -9
-15 -15 -19 -3 -41 -1 -49 4 -18 14 -51 33 -77 45 -11 5 -71 17 -133 27 -86
14 -115 22 -122 36 -11 21 -39 24 -39 4 0 -11 -18 -12 -92 -8 -51 2 -95 7 -98
9 -2 2 3 17 12 33 9 16 13 32 8 35 -5 3 -11 1 -15 -5 -4 -7 -13 -7 -26 0 -26
14 -39 5 -39 -28 0 -36 -23 -68 -55 -76 -14 -4 -25 -13 -25 -20 0 -8 -14 -19
-31 -25 -28 -10 -31 -14 -25 -42 8 -40 57 -113 150 -224 42 -49 76 -95 76
-102 0 -7 -5 -22 -12 -32 -18 -30 25 -78 142 -157 56 -37 103 -71 106 -76 3
-4 -41 -8 -98 -8 -171 -1 -392 -17 -429 -33 -19 -7 -40 -21 -48 -31 -12 -14
-9 -21 26 -54 39 -38 41 -38 105 -34 63 4 67 3 84 -23 9 -15 20 -43 23 -63 5
-29 13 -40 40 -53 31 -14 32 -16 12 -22 -19 -5 -21 -12 -21 -81 0 -73 1 -77
26 -86 38 -15 24 -34 -31 -42 -27 -4 -56 -15 -66 -25 -10 -10 -111 -171 -223
-358 -250 -414 -269 -446 -263 -452 12 -11 132 31 174 62 27 20 79 57 118 83
45 30 93 77 138 132 38 47 99 119 137 160 37 41 137 151 220 243 84 93 159
171 166 174 22 8 51 -37 57 -86 7 -58 28 -73 141 -99 83 -19 1355 -406 1383
-421 6 -3 -57 -7 -140 -7 -178 -2 -308 -16 -467 -51 -216 -47 -406 -118 -536
-199 -40 -24 -78 -44 -86 -44 -7 0 -21 -8 -29 -17 -9 -10 -51 -46 -95 -80
-105 -82 -307 -289 -373 -383 -85 -121 -147 -231 -191 -342 -23 -56 -56 -137
-72 -178 -74 -183 -118 -567 -89 -771 43 -297 82 -434 182 -644 90 -190 136
-258 303 -450 142 -165 273 -264 536 -407 232 -127 407 -186 643 -217 112 -16
397 -13 487 4 41 7 102 19 135 25 115 22 344 102 452 157 193 100 295 174 454
333 257 255 422 519 510 813 12 40 23 74 25 76 2 3 14 -5 27 -17 41 -38 135
-74 240 -90 97 -14 104 -17 148 -58 25 -23 64 -51 86 -62 109 -56 300 -76 653
-67 305 7 451 19 585 47 125 26 120 27 240 -7 115 -31 112 -31 841 -15 394 9
464 15 464 41 0 21 35 39 78 39 26 0 60 7 76 15 15 8 38 15 50 15 47 0 272
167 387 287 68 71 184 230 215 297 14 28 30 44 60 56 39 17 42 21 55 81 8 38
14 120 14 199 0 116 -3 145 -24 203 -35 104 -93 182 -189 255 -79 61 -92 82
-53 82 10 0 30 9 44 21 21 16 31 18 47 9 11 -6 20 -21 20 -33 1 -20 2 -20 11
-5 5 10 16 18 23 18 22 0 44 33 70 100 23 63 25 65 65 71 23 3 48 12 56 20 7
8 48 90 89 184 132 295 252 482 399 622 65 62 275 209 400 281 l37 21 0 -52
c1 -91 19 -195 41 -239 12 -24 44 -75 72 -115 l50 -72 -34 -28 c-302 -251
-499 -545 -639 -948 -22 -66 -40 -131 -38 -145 3 -23 7 -25 53 -25 58 0 57 9
20 -130 -33 -126 -65 -346 -65 -450 0 -71 9 -153 38 -349 5 -33 7 -68 5 -77
-6 -22 52 -209 105 -339 64 -158 228 -401 375 -557 69 -72 284 -248 389 -317
98 -65 390 -176 513 -194 39 -6 108 -16 155 -22 47 -6 117 -16 155 -23 108
-18 455 -15 535 5 125 32 251 82 335 133 22 14 68 34 102 45 56 19 104 47 233
133 132 89 368 306 415 382 11 17 40 57 66 90 25 33 65 90 88 128 49 81 131
253 131 276 0 10 4 21 10 27 12 12 66 192 80 270 30 159 49 512 32 590 -6 27
-18 94 -27 149 -18 107 -82 312 -120 385 -13 25 -27 56 -30 70 -4 14 -26 54
-49 90 -23 36 -57 90 -75 120 -65 109 -219 288 -333 389 -40 35 -113 90 -163
122 -49 32 -108 71 -130 86 l-40 28 70 11 c72 10 95 19 95 34 0 15 -191 136
-285 180 -153 72 -167 77 -285 109 -246 66 -503 99 -695 88 -182 -11 -410 -44
-462 -67 -26 -12 -61 -25 -78 -29 -28 -6 -32 -3 -60 44 -20 33 -38 51 -53 53
-13 2 -26 10 -29 18 -3 9 -13 12 -23 9 -19 -6 -50 27 -50 54 0 8 -20 54 -45
103 l-46 88 72 45 c65 42 105 65 330 191 101 56 212 128 235 152 11 10 44 38
74 62 67 51 70 56 80 131 10 70 16 79 84 124 43 28 64 35 129 41 42 4 84 12
93 18 36 27 27 234 -16 353 -12 32 -23 67 -26 78 -5 17 -4 18 6 5 45 -59 -85
271 -190 481 -27 53 -70 132 -95 174 -25 42 -45 79 -45 82 0 3 -21 36 -46 73
-33 50 -44 74 -39 89 5 17 2 21 -17 21 -17 0 -32 14 -57 51 -75 114 -174 244
-186 244 -8 0 -21 9 -29 20 -18 24 -21 44 -4 27 7 -7 19 -12 28 -12 9 0 -2 15
-27 39 l-43 38 0 74 c0 41 7 121 15 179 8 58 15 109 15 115 0 5 34 41 75 81
l75 72 0 57 c0 71 -18 103 -97 172 -92 79 -138 109 -198 127 -65 21 -97 16
-112 -17 -6 -13 -16 -75 -23 -138 -7 -63 -16 -118 -20 -122 -4 -5 -38 9 -76
29 -37 21 -78 37 -91 36 -12 -1 -25 3 -28 8 -3 6 -21 10 -39 10 -34 0 -76 -34
-76 -61 0 -25 12 -30 26 -11 12 15 13 13 8 -15 -6 -31 0 -39 129 -167 91 -91
130 -137 120 -140 -9 -4 -37 20 -76 61 -66 70 -143 127 -160 116 -6 -3 -27 14
-48 38 -20 24 -40 42 -43 39 -3 -3 1 -68 8 -145 8 -77 12 -142 9 -145 -16 -17
-32 48 -43 178 -10 122 -16 153 -35 182 -39 61 -200 217 -420 405 -45 38 -107
100 -138 136 -31 37 -67 69 -80 73 -13 3 -29 18 -36 33 -27 63 -97 153 -125
163 -49 17 -75 13 -86 -16z m157 -1800 c61 -31 57 -39 -27 -49 -52 -6 -57 -5
-89 24 -29 26 -32 33 -20 47 17 21 65 13 136 -22z m-934 -174 c4 -19 17 -34
36 -45 17 -8 41 -30 55 -47 14 -18 40 -41 59 -51 32 -17 37 -18 65 -3 17 9 40
16 52 16 33 0 83 25 123 60 33 29 42 32 76 26 45 -7 71 0 71 20 0 18 9 18 56
-2 l38 -16 -32 -14 c-18 -7 -32 -17 -32 -22 0 -5 14 -42 30 -82 17 -40 30 -78
30 -85 0 -8 -34 -14 -107 -19 -60 -4 -148 -15 -197 -26 l-90 -18 -45 40 c-50
43 -110 78 -137 78 -11 0 -14 5 -10 16 10 25 -20 51 -80 70 -32 10 -56 24 -59
34 -6 19 -33 30 -75 30 -24 0 -24 1 8 21 31 20 109 46 143 48 11 1 19 -10 22
-29z m1861 -2165 c38 -69 44 -107 24 -150 -10 -21 -7 -32 16 -76 16 -28 25
-53 22 -56 -10 -10 -42 25 -71 79 -25 46 -29 66 -33 160 -3 60 -2 108 1 108 3
0 21 -29 41 -65z m-3756 -33 c-111 -95 -185 -148 -231 -163 -41 -13 -61 -28
-92 -67 -22 -28 -43 -51 -47 -51 -5 -1 -8 26 -8 59 0 33 3 60 6 60 3 0 14 -10
25 -22 l18 -23 1 32 c0 27 7 35 54 62 30 16 67 33 83 37 15 4 40 17 54 31 25
23 131 72 157 73 7 0 -2 -13 -20 -28z m1050 -348 c2 -18 18 -49 38 -72 l34
-40 -98 -7 c-53 -3 -113 -8 -133 -11 -35 -5 -35 -5 -36 33 -2 30 4 43 25 61
22 18 24 24 12 32 -12 7 -10 11 10 18 14 5 32 12 40 15 8 3 35 5 60 4 43 -2
45 -4 48 -33z m-3423 -14 c83 -16 161 -30 175 -30 14 -1 41 -15 61 -33 52 -47
189 -203 189 -215 0 -5 15 -29 34 -51 19 -23 39 -56 45 -74 41 -128 81 -271
77 -274 -2 -3 -11 8 -20 24 -50 97 -253 336 -375 440 -80 69 -222 168 -306
215 -27 15 -45 28 -40 28 6 0 78 -13 160 -30z m3659 -10 c39 -12 81 -26 93
-32 12 -6 31 -8 42 -5 14 3 21 0 21 -10 0 -8 14 -20 30 -26 42 -16 37 -31 -7
-23 -21 4 -94 10 -163 12 -69 3 -129 9 -134 14 -6 6 -2 18 12 33 12 13 22 31
22 40 0 21 -2 21 84 -3z m-14 -190 c23 -6 49 -26 74 -56 l39 -47 -41 -38 c-25
-24 -51 -39 -67 -39 -13 0 -54 20 -89 44 -35 24 -85 51 -112 61 -95 33 -98 35
-85 48 7 7 62 17 124 23 62 6 114 12 117 13 3 0 21 -4 40 -9z m-315 -121 c28
-10 64 -28 80 -39 l30 -20 -45 0 c-68 0 -117 17 -140 49 -34 49 -30 49 75 10z
m-1185 -14 c27 -29 56 -32 82 -8 27 24 35 7 9 -21 -25 -27 -14 -43 15 -21 22
16 54 20 54 6 0 -5 -11 -18 -25 -29 -14 -11 -25 -25 -25 -31 0 -16 -107 -64
-125 -57 -13 5 -85 135 -85 154 0 11 39 30 61 31 8 1 26 -10 39 -24z m164 -92
c-30 -22 -39 -15 -13 13 15 16 25 21 28 13 2 -7 -4 -18 -15 -26z m-1354 -123
c23 -21 30 -37 30 -65 0 -26 -3 -34 -12 -29 -7 5 -25 7 -39 6 -25 -2 -29 3
-44 53 -9 31 -13 60 -10 64 8 14 43 1 75 -29z m-1782 -19 c51 -11 107 -28 125
-38 39 -23 79 -80 75 -108 -3 -18 -25 -23 -253 -61 -137 -22 -281 -48 -320
-57 -38 -9 -121 -29 -184 -43 -81 -19 -141 -40 -205 -73 -144 -75 -295 -165
-296 -177 0 -18 35 -44 73 -55 27 -7 65 -4 168 16 74 14 142 28 152 31 18 6
18 5 1 -23 -10 -15 -33 -43 -52 -60 -34 -32 -34 -33 -186 -43 -83 -6 -186 -15
-229 -21 -91 -12 -115 -7 -123 26 -13 52 106 250 222 371 271 280 647 394
1032 315z m8403 -7 c78 -14 91 -20 122 -53 78 -82 75 -197 -9 -319 -33 -47
-41 -53 -63 -47 -70 18 -385 27 -448 13 l-31 -7 -86 169 c-91 178 -100 206
-65 195 13 -5 33 2 58 18 34 23 93 39 186 51 56 7 249 -5 336 -20z m-6611
-168 c0 -6 -4 -17 -9 -24 -7 -11 -10 -10 -15 3 -11 29 -7 45 9 39 8 -4 15 -11
15 -18z m5757 -126 c86 -177 116 -247 110 -263 -3 -8 -38 -22 -83 -33 -43 -10
-85 -25 -94 -34 -24 -24 -89 -15 -94 14 -5 25 -26 292 -26 323 0 25 95 105
120 100 8 -1 38 -49 67 -107z m-5408 53 c20 -79 18 -97 -12 -111 -23 -11 -38
-12 -72 -3 -82 21 -97 29 -86 48 8 14 23 18 68 18 57 0 58 0 61 30 6 67 26 75
41 18z m6943 -150 c97 -106 199 -317 249 -518 43 -175 33 -411 -27 -621 -54
-188 -202 -430 -300 -491 -33 -20 -49 -24 -106 -21 -55 3 -75 9 -110 34 -48
33 -108 115 -108 147 0 12 24 42 60 75 33 30 80 82 105 116 53 74 123 216 131
265 3 20 10 47 16 61 15 34 11 249 -7 326 -20 85 -49 155 -107 258 l-51 89 16
41 c115 300 149 334 239 239z m-1798 -133 c2 -25 8 -72 14 -105 19 -110 24
-182 13 -202 -7 -15 -29 -23 -80 -31 -149 -25 -201 -9 -201 61 0 62 88 234
188 369 l46 63 8 -55 c5 -30 10 -75 12 -100z m-6779 -202 c19 -13 35 -26 35
-29 0 -10 -93 -17 -103 -9 -9 8 12 60 25 60 4 0 24 -10 43 -22z m1232 -348
c22 -44 15 -92 -17 -118 l-29 -23 -11 21 c-10 19 -5 122 7 143 9 15 37 2 50
-23z m-2787 -70 c119 -23 130 -28 130 -62 0 -17 14 -60 30 -95 17 -34 30 -65
30 -67 0 -3 15 -31 34 -63 53 -89 125 -167 201 -218 81 -55 137 -78 238 -101
39 -9 80 -20 89 -25 17 -9 258 -334 258 -348 0 -4 -11 -18 -25 -31 -22 -20
-38 -24 -114 -28 -477 -23 -961 312 -1100 762 -45 146 -17 235 86 272 46 16
75 17 143 4z m1930 -35 c0 -41 -33 -212 -43 -229 -13 -19 -114 -56 -154 -56
-12 0 -32 -4 -45 -9 -13 -5 -66 -19 -118 -31 -52 -12 -122 -28 -155 -37 -89
-23 -166 -32 -162 -19 2 6 17 13 33 16 24 4 30 11 34 40 4 30 9 35 29 32 21
-2 23 1 18 26 -7 34 7 52 40 52 20 0 22 3 13 19 -17 33 -11 49 20 56 34 7 35
12 15 39 -8 10 -12 23 -9 28 11 17 81 39 139 44 78 5 288 34 294 40 11 11 51
3 51 -11z m1340 -34 c19 -6 46 -20 60 -31 21 -16 22 -20 7 -20 -29 0 -93 -37
-120 -69 -25 -30 -25 -30 -43 -10 -10 11 -27 19 -38 18 -43 -3 -47 0 -35 22 6
12 8 36 4 55 -4 24 -2 35 7 38 7 2 33 10 58 18 35 12 47 12 55 3 6 -7 26 -18
45 -24z m314 -50 c4 -5 -3 -7 -14 -4 -23 6 -26 13 -6 13 8 0 17 -4 20 -9z
m4861 -96 c64 -303 276 -531 580 -625 46 -14 109 -23 186 -27 l116 -6 92 -123
c92 -122 92 -123 77 -152 -22 -44 -34 -49 -133 -63 -101 -14 -285 -3 -420 25
-165 35 -336 124 -497 257 -192 159 -291 300 -355 504 -12 39 -26 78 -32 87
-17 32 -10 57 28 98 76 85 136 109 265 106 l76 -1 17 -80z m-4897 49 c74 -7
80 -11 60 -43 -9 -15 -7 -24 11 -47 15 -19 18 -31 11 -38 -10 -10 -286 -25
-324 -18 -9 2 -16 9 -16 16 0 7 -9 21 -20 31 -21 19 -26 50 -12 72 4 7 26 19
47 28 40 15 66 15 243 -1z m-654 -50 c20 -8 21 -40 2 -47 -10 -4 -14 -21 -14
-53 0 -57 -11 -68 -56 -60 -68 13 -94 87 -49 138 19 21 86 34 117 22z m-1064
-168 c0 -36 -95 -186 -178 -283 -71 -81 -125 -113 -194 -113 -40 0 -52 5 -97
46 -43 39 -103 124 -87 124 2 0 -2 24 -10 53 -7 28 -14 53 -14 55 0 1 13 2 30
2 16 0 39 4 52 9 13 5 61 16 108 25 47 9 106 23 131 31 26 8 55 15 65 15 11 0
46 9 79 20 54 17 115 26 115 16z"/>
<path d="M1708 6004 l-4 -37 23 27 c28 33 29 46 4 46 -14 0 -20 -9 -23 -36z"/>
</g>
</svg>
