<svg width="456" height="362" viewBox="0 0 456 362" fill="rgb(37, 44, 51)" xmlns="http://www.w3.org/2000/svg">
<rect width="456" height="362" fill="rgb(37, 44, 51)"/>
<path d="M68 11H448L388 351H8L68 11Z" fill="rgb(37, 44, 51)"/>
<path d="M314.466 135.467C314.466 135.467 302.67 138.63 293.581 144.608C286.584 149.208 293.997 149.761 294.483 151.685C294.592 152.117 291.101 152.827 292.262 155.532C298.214 169.411 305.389 184.874 305.389 184.874C305.389 184.874 302.121 184.457 300.019 183.324C297.916 182.19 283.032 148.387 282.616 145.089C282.199 141.791 295.939 130.661 295.939 130.661L315.507 131.485L314.466 135.467Z" fill="#D3AF37"/>
<path d="M266.898 108.193C262.419 111.487 256.288 115.825 248.896 123.445C241.503 131.077 221.522 149.731 221.522 149.731C221.522 149.731 206.64 141.27 200.183 138.601C193.725 135.92 177.071 135.501 177.071 135.501C177.071 135.501 178.321 130.765 179.594 129.635C180.681 128.667 184.464 128.602 186.921 128.419L187.28 129.312C187.28 129.312 198.099 129.358 199.142 129.217C200.175 129.067 196.575 118.042 211.011 112.003C225.448 105.965 242.233 106.492 242.233 106.492L241.874 103.779C245.722 103.833 243.102 103.543 246.32 102.832C250.092 102.015 258.68 103.866 264.192 101.207C269.715 98.5477 266.584 97.17 266.584 97.17C266.584 97.17 270.443 96.6538 271.899 99.5912C273.356 102.521 271.377 104.9 266.898 108.193Z" fill="#D3AF37"/>
<path d="M272.37 105.498L270.277 106.862C270.009 106.514 269.849 106.304 269.849 106.304L269.676 107.254L269.41 108.709L244.727 134.164L230.159 154.109L232.656 196.617L243.938 203.69C240.514 187.187 244.001 175.885 248.628 165.165C257.452 144.721 271.616 128.992 275.902 123.868C275.902 123.868 279.962 119.839 281.524 119.221C283.085 118.603 284.699 120.096 287.925 120.766C287.925 120.766 279.583 116.775 272.37 105.498Z" fill="#D3AF37"/>
<path d="M152.405 129.732L137.11 128.3C137.11 128.3 131.381 117.568 127.218 115.717C123.054 113.866 95.6812 115.717 95.6812 115.717L94.1265 114.243L101.617 112.93L130.555 109.195L133.631 110.002L132.74 110.809C132.74 110.809 133.014 113.26 134.957 118.29C136.425 122.088 137.778 123.642 138.053 123.796C139.119 124.391 146.451 125.53 148.735 126.123C150.267 127.716 152.405 129.732 152.405 129.732Z" fill="#D3AF37"/>
<path d="M276.069 223.055L188.979 238.365L283.131 227.57" fill="#D3AF37"/>
<path d="M135.493 141.961L82.3142 151.31L142.555 146.476" fill="#D3AF37"/>
<path d="M117.179 176.92L64 186.268L124.242 181.435" fill="#D3AF37"/>
<path d="M274.965 79.0963L190.398 92.7349L282.028 83.6106" fill="#D3AF37"/>
<path d="M283.991 84.7618L237.305 92.2908L287.89 87.2542" fill="#D3AF37"/>
<path d="M146.477 148.509L114.617 154.11L150.708 151.214" fill="#D3AF37"/>
<path d="M285.974 229.182L225.646 239.786L291.975 233.368" fill="#D3AF37"/>
<path d="M319.875 230.166L259.546 240.771L325.875 234.353" fill="#D3AF37"/>
<path d="M303.599 88.8505C303.599 88.8505 299.618 78.0315 291.621 75.5238C294.925 77.9461 296.668 80.6255 296.824 82.9959C297.034 86.1782 292.253 85.6661 287.064 80.8083C287.064 80.8083 291.605 90.6509 297.865 91.5501C304.126 92.4494 303.905 89.705 303.599 88.8505Z" fill="#D3AF37"/>
<path d="M361.041 158.116C368.108 180.074 359.596 205.779 351.822 213.809C361.215 197.556 361.324 179.612 359.889 168.557C358.987 161.647 356.737 156.244 354.269 151.809C350.16 144.435 344.517 140.248 339.017 137.858C325.591 135.662 308.86 144.381 306.099 145.963C302.338 148.105 300.871 151.948 300.696 156.383C305.881 152.713 314.796 153.854 314.796 153.854C325.753 156.232 331.874 162.896 334.668 172.615C337.635 182.895 335.918 192.797 331.113 202.238C326.297 211.742 318.992 218.598 308.664 221.838C296.609 225.639 284.89 220.332 279.334 209.105C271.551 193.347 278.932 173.004 288.445 164.564C291.195 170.56 293.913 176.491 296.663 182.421C298.783 187.028 298.794 187.028 304.186 190.43C301.827 191.474 297.196 189.666 296.022 187.18C294.489 183.875 293.021 180.549 291.391 176.954C287.607 182.896 286.14 188.913 287.434 195.435C289.771 207.114 301.969 211.333 311.839 203.927C319.72 198.029 323.471 186.565 321.08 177.503C319.569 171.809 315.71 168.009 309.252 167.556C309.252 167.556 309.241 167.556 309.231 167.556C307.132 167.438 304.11 167.955 302.611 168.655C304.98 176.61 308.666 183.498 308.731 183.799C308.883 184.467 301.469 183.391 300.621 182.68L285.293 149.204C284.358 147.159 284.641 144.78 286.043 143.016C288.152 140.325 291.501 136.019 294.729 134.286C296.719 133.231 295.87 135.115 301.925 134.792C305.546 134.598 308.72 134.103 312.231 133.651C310.883 134.199 309.252 134.845 307.524 135.502C301.698 137.74 293.707 138.128 293.707 138.128C293.707 138.128 299.848 138.752 305.545 137.568C309.002 136.847 316.611 134.942 321.242 133.78C323.852 133.112 326.548 132.789 329.243 132.8C331.983 132.821 334.603 132.875 335.69 133.037C338.244 133.424 340.223 134.339 340.463 134.457C340.202 134.156 337.701 131.476 335.614 130.894C333.472 130.302 330.787 129.936 328.33 129.72C329.776 128.752 330.254 127.804 330.091 126.168C327.351 128.676 320.698 128.16 315.904 127.643C304.63 126.405 295.184 122.455 290.205 123.078C282.096 124.102 260.224 148.525 252.635 162.614C242.916 180.676 243.938 203.689 243.938 203.689C243.938 203.689 236.427 188.458 241.09 166.242C242.209 168.663 244.047 169.719 245.079 167.135C247.178 161.925 249.526 156.984 251.971 152.378C249.46 152.808 244.992 153.788 240.503 155.887C240.753 155.66 244.84 152.066 251.048 150.182C252.678 149.676 254.048 148.579 254.896 147.114C255.755 145.629 256.624 144.186 257.483 142.787C255.308 143.078 249.243 144.09 243.144 146.953C243.481 146.651 248.96 141.851 257.037 139.978C258.711 139.59 260.157 138.557 261.114 137.147C262.191 135.521 263.256 133.993 264.288 132.551C262.691 132.734 255.352 133.725 247.993 137.191C247.993 137.191 254.537 131.249 264.245 129.333C265.996 128.989 267.582 128.085 268.67 126.685C270.029 124.921 271.268 123.403 272.312 122.144C274.442 119.571 274.551 115.911 272.54 113.253C270.942 111.144 269.409 109.033 269.409 108.711C269.409 108.044 276.073 104.815 276.073 104.815C276.073 104.815 283.715 113.038 289.749 116.751C293.391 118.99 305.664 123.931 315.47 125.018C319.569 125.459 329.102 126.31 327.982 119.087C327.514 119.528 326.982 119.938 326.384 120.292C325.46 120.831 324.264 120.475 323.808 119.517C322.503 116.675 319.808 110.55 318.72 105.653C318.568 104.878 318.426 103.059 319.111 102.994C319.752 102.919 321.307 104.479 321.492 104.674C320.143 102.65 318.198 100.367 318.198 100.367C314.784 96.2342 310.632 92.6719 305.511 89.8086C306.859 92.8222 307.804 96.5685 303.956 96.2565C294.77 95.5138 287.194 90.3685 286.432 89.831C287.106 90.2181 296.085 94.578 301.086 94.5343C304.598 94.5018 304.619 91.8438 303.597 88.8515C303.412 89.7984 302.781 90.4121 301.521 90.4233C297.575 90.4345 292.313 86.0644 287.921 81.6618C280.844 74.5464 277.312 73.0507 277.312 73.0507C280.899 72.0499 288.91 72.6738 291.617 73.2987C292.737 73.5466 293.748 73.9764 294.672 74.5149C292.117 72.1576 289.53 71.0592 286.671 70.5756C279.193 69.3055 264.864 69.9944 261.733 74.0841C264.462 75.6559 266.994 77.0124 269.441 78.5192C271.996 80.091 274.496 81.7269 276.931 83.4603C280.214 85.8287 285.193 90.6286 282.845 93.0183C280.703 95.2029 270.724 91.2311 267.136 92.1679L262.734 96.732L262.712 96.7747C262.506 97.0653 262.343 97.3346 262.201 97.6038L244.471 101.726C243.884 101.866 243.362 102.134 242.916 102.501C240.699 102.286 238.329 102.189 235.894 102.33C223.425 103.051 209.607 107.636 207.086 108.701C198.933 112.146 193.062 118.658 190.138 124.825C189.333 126.526 188.441 127.279 186.138 127.592C183.452 127.958 179.615 128.119 178.158 129.002C177.854 129.185 177.484 129.605 177.115 130.099C175.734 131.929 173.549 132.952 171.266 132.758L155.569 131.402C154.916 131.348 154.428 130.832 154.362 130.197C154.351 130.035 154.319 129.874 154.286 129.734C154.123 129.174 153.678 128.916 153.525 128.819C148.861 125.891 145.676 120.541 145.774 115.192C145.785 114.234 145.72 112.317 145.492 111.919C145.177 111.413 144.328 111.37 143.045 111.101C139.262 110.283 131.283 108.755 130.74 108.819C119.955 110.079 100.072 112.404 90.8212 113.555C89.9736 113.663 89.5713 114.621 90.0598 115.298C91.125 116.751 92.0927 118.119 92.2774 118.237C102.191 124.071 173.125 164.629 173.342 164.845C173.56 165.06 173.201 165.501 172.679 165.501C172.571 165.501 171.299 165.124 169.44 164.543C169.397 164.532 169.342 164.522 169.288 164.5C166.788 163.994 154.014 165.651 153.83 165.738C152.568 166.298 150.71 169.107 149.84 170.216C138.871 163.025 123.413 162.433 117.14 164.048C115.52 164.812 123.52 164.468 133.099 167.912C136.273 169.064 143.513 173.229 145.166 176.523C145.546 177.18 144.274 176.383 144.1 176.254C133.316 167.88 118.684 167.61 107.53 173.262C90.0608 182.098 83.0705 201.991 82.386 217.533C81.8647 229.697 84.1141 243.603 92.7463 253C81.3096 223.636 93.1814 203.627 98.3123 196.878C98.573 196.545 104.987 187.751 116 185.092C124.739 182.992 135.708 185.145 139.937 192.949L145.231 192.356L140.491 194.079L125.533 200.203C124.228 200.731 122.804 200.85 121.434 200.537C119.467 200.085 116.325 199.686 113.607 200.731C107.052 203.261 103.4 209.944 103.694 216.962C104.139 227.629 112.151 229.426 117.141 228.081C123.175 226.445 126.99 221.15 128.685 215.616C129.326 213.549 130.316 212.559 132.414 212.075C132.773 211.989 133.121 211.903 133.479 211.827C133.023 214.475 131.914 218.329 129.196 222.538C126.859 226.165 120.728 229.944 117.814 230.287C117.814 230.287 124.956 231.224 130.761 223.054C133.022 219.857 134.599 216.068 135.62 213C136.001 211.859 136.957 210.998 138.142 210.707C143.307 209.464 157.405 205.867 166.509 203.614C166.393 203.989 166.351 204.12 166.225 204.479C160.489 206.517 152.599 209.28 149.632 210.266C147.59 210.944 147.013 211.568 146.861 213.591C145.915 225.56 140.414 234.914 129.793 240.91C128.076 241.878 126.326 242.665 124.564 243.224C124.999 243.149 125.423 243.095 125.836 243.03C125.912 243.009 126 242.988 126.087 242.977C130.675 242.03 144.371 237.746 148.535 219.533C148.438 220.449 146.437 235.13 134.708 241.641C145.09 239.994 154.156 238.53 162.538 237.229C164.212 234.086 165.56 230.813 166.636 227.39L181.399 224.7C176.985 219.436 175.343 215.486 175.257 215.282C181.443 223.333 191.955 232.569 195.271 232.16H195.282C195.282 232.16 246.028 223.86 265.465 220.61C259.301 200.837 266.313 187.458 266.618 186.887C262.704 201.548 266.629 214.292 269.412 219.932C274.369 230.147 283.131 239.566 295.926 242.806C341.8 254.473 379.967 198.082 361.041 158.116ZM314.97 196.531C319.982 189.244 321.384 174.391 312.253 169.697C322.135 173.777 321.091 189.643 315.819 197.08C312.906 201.354 308.296 204.754 303.035 205.379C297.937 206.047 292.055 203.517 290.239 198.555C292.359 203.237 298.023 205.433 302.936 204.669C307.881 203.873 312.263 200.655 314.97 196.531ZM285.226 101.262C295.575 101.939 309.251 112.478 309.914 112.994C309.578 112.607 303.99 106.385 299.684 103.867C298.684 103.274 297.716 102.747 296.804 102.262C300.587 102.855 304.109 103.791 306.099 105.255C312.437 109.904 316.469 115.75 318.492 119.204C319.231 120.464 318.96 121.82 317.492 121.669C308.381 120.765 303.435 118.612 296.826 115.103C287.988 110.399 281.151 101.208 281.151 101.208C281.151 101.208 282.781 101.186 285.226 101.262ZM115.107 219.491C112.552 219.513 110.965 217.855 110.921 215.164C110.845 211.579 114.03 207.79 117.204 207.673C119.651 207.576 121.498 209.341 121.596 211.892C121.705 215.595 118.411 219.47 115.107 219.491ZM244.07 103.834C244.863 103.522 245.809 104.017 246.168 104.933C246.538 105.847 246.19 106.859 245.385 107.161C244.592 107.473 243.646 106.989 243.287 106.063C242.917 105.147 243.265 104.146 244.07 103.834ZM179.647 132.423C179.908 131.723 180.256 130.884 180.593 130.636C182.006 129.624 185.833 129.323 188.736 129.258C190.845 129.193 191.747 127.525 192.563 125.609C193.845 122.596 196.617 118.936 200.433 115.761C205.238 111.768 209.717 109.786 216.784 107.946C220.991 106.849 228.514 104.975 236.428 104.675C238.319 104.599 240.026 104.653 241.57 104.771C241.483 105.31 241.515 105.858 241.69 106.407C241.701 106.439 241.711 106.472 241.723 106.493C242.342 108.302 244.343 109.26 246.202 108.787L265.269 103.922C267.085 103.458 268.291 101.586 267.825 99.7883C267.825 99.767 267.813 99.7345 267.803 99.7132C267.661 99.1858 267.389 98.7337 267.042 98.3567L267.053 98.3455C267.053 98.3455 270.009 100.262 268.944 103.501C268.532 104.782 267.607 105.363 265.846 105.977L264.596 106.333C264.118 106.473 263.846 106.968 263.998 107.441C263.998 107.441 263.998 107.451 264.009 107.451C264.129 107.871 263.89 108.313 263.477 108.42C259.998 109.324 246.67 112.779 245.257 113.296C244.431 113.598 243.29 114.243 242.452 114.738C241.724 115.179 240.843 115.276 240.039 115.028C237.365 114.189 234.082 113.285 232.418 113.295C226.852 113.316 211.198 117.902 210.22 118.192C211.264 118.031 229.995 115.06 232.702 116.47C233.56 116.922 234.571 117.826 235.854 118.279C239.463 119.527 237.832 121.045 237.006 122.552C232.419 130.905 226.918 142.132 220.483 146.825C219.265 147.718 213.515 145.039 209.329 141.669L206.263 139.527C205.719 139.15 205.165 138.796 204.589 138.451C204.274 138.257 198.448 134.759 193.664 130.917C194.392 132.284 195.446 133.856 196.806 135.287C195.469 134.964 194.099 134.728 192.707 134.61L180.39 133.555C179.822 133.499 179.462 132.939 179.647 132.423ZM213.065 158.622C204.259 153.919 202.259 148.698 202.15 148.375C205.781 151.766 211.304 154.586 215.533 156.438C218.739 157.848 220.294 159.85 219.62 164.704C219.076 168.515 218.642 171.453 218.032 175.544C216.315 187.061 210.053 197.222 200.324 202.399C197.649 203.831 194.715 204.875 191.54 205.467C205.814 202.151 213.738 189.697 215.205 174.79C215.705 169.806 215.955 167.029 216.031 164.274C216.109 161.937 215.142 159.731 213.065 158.622ZM129.749 111.95C130.206 111.907 130.521 111.53 130.554 111.078C130.619 110.163 131.098 109.786 131.098 109.786C131.098 109.786 130.979 111.444 131.609 111.53C133.283 111.734 141.176 113.22 143.316 113.629C143.621 113.694 143.849 113.952 143.86 114.275C143.893 115.115 143.926 116.719 144.002 117.364C144.654 122.875 147.307 126.126 150.188 128.3C150.188 128.3 147.133 127.051 137.915 125.856C136.752 125.706 134.696 121.583 133.099 117.891C131.968 115.254 129.294 113.597 126.402 113.726L97.0388 115.028L129.749 111.95ZM176.31 162.4C175.517 162.26 108.116 124.576 102.898 121.638C108.149 124.351 174.875 158.826 176.419 158.762C179.604 156.696 182.42 155.943 182.42 155.943C182.42 155.943 179.256 158.18 176.31 162.4ZM197.215 229.792C191.91 228.651 185.539 221.655 185.148 221.214C185.638 221.579 193.964 227.877 198.781 227.177L256.919 218.167C259.996 219.114 262.388 219.297 262.388 219.297L197.215 229.792ZM335.027 207.738C329.885 216.521 321.448 223.808 311.263 225.928C301.62 228.35 289.554 227.004 283.129 218.77C289.999 226.38 301.533 227.273 310.937 224.668C320.743 222.278 328.625 215.465 333.528 206.876C343.311 190.902 345.301 163.993 325.418 154.886C346.647 163.1 344.962 191.301 335.027 207.738Z" fill="white"/>
<path d="M101.588 278.542L92.7238 299.506H81.8113L101.687 256.346L112.434 281.42L138.287 256.346L132.267 299.506H121.354L125.068 278.542L108.153 295.689L101.588 278.542ZM140.342 286C141.199 283.142 142.64 280.656 144.663 278.542C146.687 276.428 149.101 274.784 151.906 273.61C154.711 272.435 157.646 271.848 160.711 271.848C163.776 271.848 166.338 272.435 168.397 273.61C170.497 274.784 171.925 276.428 172.681 278.542C173.477 280.656 173.446 283.142 172.589 286C171.743 288.818 170.288 291.285 168.224 293.399C166.2 295.513 163.786 297.157 160.981 298.331C158.217 299.506 155.303 300.093 152.237 300.093C149.172 300.093 146.589 299.506 144.489 298.331C142.39 297.157 140.962 295.513 140.206 293.399C139.451 291.285 139.496 288.818 140.342 286ZM149.844 286C149.421 287.409 149.364 288.623 149.672 289.641C149.991 290.619 150.559 291.383 151.376 291.931C152.192 292.479 153.213 292.753 154.439 292.753C155.625 292.753 156.79 292.479 157.935 291.931C159.122 291.383 160.148 290.619 161.013 289.641C161.932 288.623 162.602 287.409 163.025 286C163.448 284.591 163.505 283.377 163.198 282.359C162.931 281.341 162.369 280.558 161.511 280.01C160.695 279.462 159.694 279.188 158.509 279.188C157.283 279.188 156.097 279.462 154.952 280.01C153.806 280.558 152.774 281.341 151.856 282.359C150.938 283.377 150.267 284.591 149.844 286ZM178.9 272.494H197.782L195.58 279.834H176.697L178.9 272.494ZM186.684 263.099H195.573L184.651 299.506H175.762L186.684 263.099ZM196.021 286C196.878 283.142 198.319 280.656 200.342 278.542C202.366 276.428 204.78 274.784 207.585 273.61C210.39 272.435 213.324 271.848 216.39 271.848C219.455 271.848 222.017 272.435 224.076 273.61C226.176 274.784 227.604 276.428 228.359 278.542C229.156 280.656 229.125 283.142 228.268 286C227.422 288.818 225.967 291.285 223.903 293.399C221.879 295.513 219.465 297.157 216.66 298.331C213.896 299.506 210.982 300.093 207.916 300.093C204.851 300.093 202.268 299.506 200.168 298.331C198.068 297.157 196.641 295.513 195.885 293.399C195.13 291.285 195.175 288.818 196.021 286ZM205.523 286C205.1 287.409 205.043 288.623 205.351 289.641C205.67 290.619 206.238 291.383 207.054 291.931C207.871 292.479 208.892 292.753 210.118 292.753C211.304 292.753 212.469 292.479 213.614 291.931C214.8 291.383 215.826 290.619 216.692 289.641C217.611 288.623 218.281 287.409 218.704 286C219.127 284.591 219.184 283.377 218.877 282.359C218.61 281.341 218.048 280.558 217.19 280.01C216.374 279.462 215.373 279.188 214.188 279.188C212.962 279.188 211.776 279.462 210.631 280.01C209.485 280.558 208.453 281.341 207.535 282.359C206.617 283.377 205.946 284.591 205.523 286ZM238.748 282.3L241.426 273.375H273.918L271.241 282.3H238.748ZM271.851 258.401H282.212L269.88 299.506H259.519L271.851 258.401ZM243.037 258.401H253.397L241.066 299.506H230.705L243.037 258.401ZM290.838 288.936C290.368 290.502 290.305 291.735 290.648 292.635C291.003 293.497 291.936 293.927 293.448 293.927C294.47 293.927 295.387 293.732 296.199 293.34C297.052 292.949 297.795 292.381 298.427 291.637C299.059 290.893 299.533 289.993 299.85 288.936L304.783 272.494H314.04L305.937 299.506H296.679L297.895 295.454C296.602 296.902 295.132 298.057 293.484 298.919C291.847 299.741 289.987 300.152 287.903 300.152C284.388 300.152 282.083 299.251 280.988 297.451C279.946 295.611 279.907 293.086 280.87 289.875L286.084 272.494H295.771L290.838 288.936ZM336.181 253.703L322.44 299.506H313.183L326.923 253.703H336.181ZM349.543 286C348.639 289.014 347.216 291.578 345.274 293.692C343.384 295.767 341.253 297.353 338.881 298.449C336.549 299.545 334.219 300.093 331.889 300.093C329.559 300.093 327.645 299.525 326.147 298.39C324.648 297.255 323.684 295.63 323.256 293.516C322.828 291.402 323.048 288.897 323.917 286C324.798 283.064 326.081 280.558 327.766 278.484C329.463 276.37 331.401 274.745 333.581 273.61C335.76 272.474 338.015 271.907 340.345 271.907C342.675 271.907 344.676 272.455 346.35 273.551C348.065 274.647 349.244 276.233 349.889 278.307C350.574 280.382 350.459 282.946 349.543 286ZM339.795 286C340.218 284.591 340.276 283.377 339.968 282.359C339.672 281.302 339.095 280.5 338.238 279.952C337.392 279.364 336.356 279.071 335.13 279.071C334.068 279.071 332.943 279.345 331.757 279.893C330.612 280.441 329.554 281.243 328.583 282.3C327.623 283.318 326.926 284.551 326.492 286C326.057 287.448 326.008 288.701 326.345 289.758C326.694 290.776 327.276 291.559 328.093 292.107C328.95 292.655 329.91 292.929 330.973 292.929C332.199 292.929 333.405 292.655 334.591 292.107C335.789 291.52 336.847 290.717 337.766 289.699C338.696 288.642 339.373 287.409 339.795 286Z" fill="#D3AF37"/>
<path d="M74.2948 319.448L75.0125 315.859H88.4395L87.7218 319.448H83.0441L80.4347 332.495H76.3387L78.9482 319.448H74.2948ZM86.4571 321.563H90.2865L91.4914 327.172L95.9787 320.731L97.9626 327.172L101.411 321.563H105.24L97.172 333.184L94.7905 326.672L89.8769 333.184L86.4571 321.563ZM104.392 327.029C104.623 325.872 105.099 324.866 105.819 324.011C106.54 323.155 107.432 322.49 108.497 322.014C109.561 321.539 110.7 321.301 111.911 321.301C113.123 321.301 114.158 321.539 115.017 322.014C115.891 322.49 116.517 323.155 116.896 324.011C117.29 324.866 117.371 325.872 117.14 327.029C116.912 328.17 116.43 329.168 115.693 330.023C114.973 330.879 114.08 331.544 113.016 332.02C111.967 332.495 110.837 332.733 109.625 332.733C108.413 332.733 107.37 332.495 106.496 332.02C105.621 331.544 104.995 330.879 104.617 330.023C104.239 329.168 104.164 328.17 104.392 327.029ZM108.148 327.029C108.034 327.599 108.057 328.09 108.217 328.502C108.38 328.899 108.634 329.207 108.977 329.429C109.321 329.651 109.735 329.762 110.219 329.762C110.688 329.762 111.138 329.651 111.57 329.429C112.019 329.207 112.396 328.899 112.701 328.502C113.026 328.09 113.245 327.599 113.359 327.029C113.473 326.459 113.45 325.967 113.29 325.555C113.147 325.144 112.895 324.827 112.535 324.605C112.192 324.383 111.786 324.272 111.317 324.272C110.833 324.272 110.374 324.383 109.942 324.605C109.51 324.827 109.131 325.144 108.807 325.555C108.482 325.967 108.263 326.459 108.148 327.029ZM143.063 325.342L148.256 315.859H153.127L142.261 333.469L138.79 323.44L131.331 333.469L127.509 315.859H132.356L133.805 325.342L140.472 315.027L143.063 325.342ZM158.729 313.958L155.021 332.495H151.337L155.045 313.958H158.729ZM159.915 325.841C160.045 325.191 160.023 324.692 159.851 324.343C159.678 323.995 159.293 323.821 158.695 323.821C158.307 323.821 157.95 323.908 157.625 324.082C157.302 324.24 157.03 324.47 156.808 324.771C156.59 325.056 156.438 325.413 156.352 325.841H155.722C155.896 324.969 156.198 324.185 156.629 323.488C157.062 322.775 157.611 322.212 158.275 321.8C158.958 321.373 159.76 321.159 160.681 321.159C161.602 321.159 162.306 321.317 162.792 321.634C163.294 321.951 163.613 322.418 163.748 323.036C163.882 323.654 163.86 324.415 163.679 325.318L162.244 332.495H158.584L159.915 325.841ZM170.76 332.733C169.467 332.733 168.39 332.503 167.529 332.044C166.687 331.568 166.093 330.903 165.747 330.047C165.401 329.192 165.343 328.186 165.575 327.029C165.809 325.857 166.262 324.843 166.934 323.987C167.606 323.131 168.457 322.474 169.486 322.014C170.531 321.555 171.7 321.325 172.993 321.325C174.285 321.325 175.332 321.547 176.132 321.991C176.935 322.418 177.488 323.044 177.792 323.868C178.096 324.692 178.13 325.69 177.896 326.863C177.861 327.037 177.826 327.211 177.791 327.385C177.76 327.544 177.717 327.679 177.662 327.789H167.483L167.882 325.793H174.765L173.674 326.886C173.777 326.775 173.869 326.641 173.949 326.482C174.048 326.308 174.109 326.165 174.131 326.055C174.226 325.579 174.22 325.167 174.112 324.819C174.004 324.47 173.807 324.201 173.522 324.011C173.237 323.821 172.876 323.726 172.44 323.726C171.891 323.726 171.406 323.844 170.987 324.082C170.568 324.32 170.212 324.684 169.92 325.175C169.647 325.651 169.43 326.253 169.268 326.981C169.135 327.647 169.118 328.217 169.217 328.693C169.316 329.168 169.534 329.532 169.871 329.786C170.211 330.023 170.664 330.142 171.229 330.142C171.876 330.142 172.449 330.023 172.949 329.786C173.465 329.548 173.908 329.192 174.277 328.716L177.393 329.501C176.595 330.578 175.642 331.386 174.533 331.925C173.439 332.463 172.182 332.733 170.76 332.733ZM184.653 332.733C183.36 332.733 182.283 332.503 181.422 332.044C180.58 331.568 179.986 330.903 179.64 330.047C179.294 329.192 179.237 328.186 179.468 327.029C179.703 325.857 180.156 324.843 180.828 323.987C181.5 323.131 182.35 322.474 183.379 322.014C184.425 321.555 185.593 321.325 186.886 321.325C188.179 321.325 189.225 321.547 190.025 321.991C190.828 322.418 191.381 323.044 191.685 323.868C191.989 324.692 192.024 325.69 191.789 326.863C191.754 327.037 191.72 327.211 191.685 327.385C191.653 327.544 191.61 327.679 191.555 327.789H181.376L181.775 325.793H188.658L187.567 326.886C187.67 326.775 187.762 326.641 187.842 326.482C187.942 326.308 188.002 326.165 188.025 326.055C188.12 325.579 188.113 325.167 188.005 324.819C187.897 324.47 187.701 324.201 187.415 324.011C187.13 323.821 186.77 323.726 186.333 323.726C185.784 323.726 185.3 323.844 184.881 324.082C184.461 324.32 184.106 324.684 183.814 325.175C183.541 325.651 183.323 326.253 183.162 326.981C183.028 327.647 183.011 328.217 183.11 328.693C183.209 329.168 183.427 329.532 183.764 329.786C184.104 330.023 184.557 330.142 185.123 330.142C185.769 330.142 186.342 330.023 186.842 329.786C187.358 329.548 187.801 329.192 188.171 328.716L191.286 329.501C190.489 330.578 189.535 331.386 188.426 331.925C187.333 332.463 186.075 332.733 184.653 332.733ZM196.63 313.958H200.314L196.607 332.495H192.923L196.63 313.958ZM200.855 328.526C201.328 328.986 201.764 329.35 202.163 329.619C202.581 329.873 202.956 330.055 203.29 330.166C203.626 330.261 203.924 330.309 204.182 330.309C204.554 330.309 204.844 330.229 205.054 330.071C205.263 329.913 205.393 329.707 205.444 329.453C205.492 329.215 205.458 329.017 205.345 328.859C205.234 328.685 205.017 328.518 204.693 328.36C204.386 328.201 203.95 328.035 203.387 327.861C202.892 327.671 202.428 327.449 201.993 327.195C201.579 326.926 201.262 326.569 201.044 326.126C200.826 325.682 200.786 325.112 200.926 324.415C201.059 323.749 201.349 323.187 201.796 322.727C202.26 322.268 202.822 321.919 203.484 321.682C204.162 321.444 204.904 321.325 205.712 321.325C206.359 321.325 206.942 321.396 207.463 321.539C208 321.682 208.487 321.872 208.924 322.109C209.378 322.347 209.791 322.624 210.164 322.941L208.389 325.27C208.006 324.843 207.543 324.494 206.999 324.225C206.458 323.939 205.937 323.797 205.436 323.797C205.097 323.797 204.826 323.86 204.623 323.987C204.436 324.114 204.322 324.28 204.28 324.486C204.233 324.724 204.29 324.922 204.452 325.08C204.631 325.239 204.891 325.389 205.235 325.532C205.597 325.658 206.032 325.825 206.54 326.031C207.081 326.237 207.567 326.474 207.997 326.744C208.445 327.013 208.772 327.354 208.981 327.766C209.205 328.178 209.249 328.724 209.113 329.406C208.879 330.578 208.33 331.465 207.466 332.067C206.622 332.654 205.537 332.947 204.212 332.947C203.404 332.947 202.672 332.852 202.015 332.661C201.371 332.487 200.789 332.25 200.267 331.948C199.749 331.632 199.277 331.283 198.853 330.903L200.855 328.526ZM210.017 328.407L210.64 325.294H215.778L215.155 328.407H210.017ZM221.277 324.177C221.081 325.159 221.1 326.031 221.336 326.791C221.591 327.536 222.031 328.122 222.656 328.55C223.298 328.978 224.103 329.192 225.073 329.192C226.026 329.192 226.901 328.978 227.698 328.55C228.51 328.122 229.185 327.536 229.722 326.791C230.278 326.031 230.654 325.159 230.85 324.177C231.047 323.195 231.026 322.331 230.787 321.587C230.551 320.826 230.121 320.232 229.495 319.804C228.87 319.376 228.064 319.162 227.079 319.162C226.109 319.162 225.218 319.376 224.406 319.804C223.609 320.232 222.933 320.826 222.377 321.587C221.84 322.331 221.473 323.195 221.277 324.177ZM216.939 324.177C217.195 322.894 217.656 321.721 218.321 320.66C219.002 319.598 219.832 318.679 220.811 317.903C221.79 317.127 222.879 316.532 224.076 316.12C225.276 315.693 226.523 315.479 227.815 315.479C229.124 315.479 230.285 315.693 231.298 316.12C232.331 316.532 233.182 317.127 233.85 317.903C234.519 318.679 234.973 319.598 235.214 320.66C235.454 321.721 235.445 322.894 235.189 324.177C234.932 325.46 234.47 326.641 233.802 327.718C233.15 328.796 232.333 329.73 231.351 330.523C230.384 331.315 229.299 331.933 228.096 332.376C226.895 332.804 225.633 333.018 224.308 333.018C222.967 333.018 221.781 332.804 220.752 332.376C219.726 331.933 218.88 331.315 218.214 330.523C217.565 329.73 217.122 328.796 216.885 327.718C216.664 326.641 216.682 325.46 216.939 324.177ZM244.364 325.841C244.494 325.191 244.464 324.692 244.275 324.343C244.103 323.995 243.726 323.821 243.144 323.821C242.756 323.821 242.401 323.9 242.078 324.058C241.756 324.217 241.484 324.446 241.262 324.747C241.04 325.048 240.887 325.413 240.801 325.841L239.47 332.495H235.786L237.973 321.563H241.657L241.329 323.203C241.772 322.601 242.302 322.133 242.918 321.8C243.55 321.468 244.278 321.301 245.102 321.301C246.491 321.301 247.428 321.666 247.913 322.395C248.397 323.123 248.508 324.145 248.245 325.46L246.838 332.495H243.033L244.364 325.841ZM255.351 332.733C254.058 332.733 252.981 332.503 252.12 332.044C251.278 331.568 250.684 330.903 250.338 330.047C249.992 329.192 249.934 328.186 250.166 327.029C250.4 325.857 250.853 324.843 251.525 323.987C252.197 323.131 253.048 322.474 254.077 322.014C255.122 321.555 256.291 321.325 257.584 321.325C258.876 321.325 259.923 321.547 260.723 321.991C261.526 322.418 262.079 323.044 262.383 323.868C262.687 324.692 262.721 325.69 262.487 326.863C262.452 327.037 262.417 327.211 262.382 327.385C262.351 327.544 262.308 327.679 262.253 327.789H252.074L252.473 325.793H259.356L258.265 326.886C258.368 326.775 258.459 326.641 258.54 326.482C258.639 326.308 258.7 326.165 258.722 326.055C258.817 325.579 258.811 325.167 258.703 324.819C258.595 324.47 258.398 324.201 258.113 324.011C257.828 323.821 257.467 323.726 257.031 323.726C256.482 323.726 255.997 323.844 255.578 324.082C255.159 324.32 254.803 324.684 254.511 325.175C254.238 325.651 254.021 326.253 253.859 326.981C253.726 327.647 253.709 328.217 253.808 328.693C253.907 329.168 254.125 329.532 254.462 329.786C254.802 330.023 255.255 330.142 255.82 330.142C256.467 330.142 257.04 330.023 257.54 329.786C258.056 329.548 258.499 329.192 258.868 328.716L261.983 329.501C261.186 330.578 260.233 331.386 259.124 331.925C258.03 332.463 256.773 332.733 255.351 332.733ZM274.577 315.859H278.673L275.346 332.495H271.25L274.577 315.859ZM276.486 319.162L277.146 315.859H280.467C281.905 315.859 283.064 316.081 283.945 316.524C284.845 316.952 285.465 317.57 285.804 318.378C286.143 319.186 286.199 320.161 285.971 321.301C285.749 322.41 285.305 323.377 284.639 324.201C283.977 325.009 283.108 325.635 282.034 326.078C280.979 326.506 279.733 326.72 278.294 326.72H274.974L275.635 323.417H278.955C279.779 323.417 280.462 323.234 281.003 322.87C281.545 322.506 281.884 321.983 282.02 321.301C282.159 320.604 282.031 320.073 281.636 319.709C281.24 319.345 280.63 319.162 279.806 319.162H276.486ZM288.773 329.073C288.716 329.358 288.74 329.604 288.844 329.81C288.951 330 289.115 330.15 289.335 330.261C289.559 330.356 289.816 330.404 290.107 330.404C290.527 330.404 290.932 330.317 291.322 330.142C291.713 329.968 292.056 329.707 292.352 329.358C292.648 329.009 292.846 328.582 292.948 328.075L293.05 329.501C292.911 330.198 292.598 330.792 292.112 331.283C291.629 331.758 291.056 332.123 290.391 332.376C289.729 332.614 289.043 332.733 288.332 332.733C287.621 332.733 286.984 332.606 286.421 332.353C285.877 332.083 285.471 331.687 285.204 331.164C284.953 330.641 284.902 330.008 285.051 329.263C285.26 328.217 285.805 327.393 286.685 326.791C287.568 326.173 288.704 325.864 290.094 325.864C290.772 325.864 291.365 325.928 291.873 326.055C292.397 326.181 292.834 326.34 293.184 326.53C293.534 326.72 293.785 326.918 293.938 327.124L293.619 328.716C293.288 328.431 292.879 328.217 292.39 328.075C291.921 327.916 291.404 327.837 290.838 327.837C290.402 327.837 290.045 327.885 289.768 327.98C289.49 328.075 289.268 328.217 289.1 328.407C288.936 328.582 288.827 328.803 288.773 329.073ZM287.981 324.914L287.225 322.513C287.916 322.212 288.732 321.927 289.675 321.658C290.617 321.389 291.614 321.254 292.664 321.254C293.649 321.254 294.501 321.396 295.22 321.682C295.942 321.951 296.476 322.347 296.824 322.87C297.172 323.393 297.27 324.034 297.118 324.795L295.578 332.495H292.064L293.442 325.603C293.496 325.334 293.493 325.104 293.434 324.914C293.395 324.708 293.3 324.534 293.151 324.391C293.002 324.248 292.796 324.145 292.534 324.082C292.289 324.019 291.996 323.987 291.657 323.987C291.156 323.987 290.652 324.042 290.145 324.153C289.654 324.264 289.215 324.399 288.828 324.557C288.444 324.7 288.162 324.819 287.981 324.914ZM299.718 328.526C300.191 328.986 300.628 329.35 301.026 329.619C301.444 329.873 301.82 330.055 302.153 330.166C302.489 330.261 302.787 330.309 303.045 330.309C303.417 330.309 303.707 330.229 303.917 330.071C304.126 329.913 304.256 329.707 304.307 329.453C304.355 329.215 304.321 329.017 304.208 328.859C304.097 328.685 303.88 328.518 303.556 328.36C303.249 328.201 302.813 328.035 302.25 327.861C301.755 327.671 301.291 327.449 300.857 327.195C300.442 326.926 300.125 326.569 299.907 326.126C299.689 325.682 299.649 325.112 299.789 324.415C299.922 323.749 300.212 323.187 300.659 322.727C301.123 322.268 301.686 321.919 302.347 321.682C303.025 321.444 303.768 321.325 304.575 321.325C305.222 321.325 305.805 321.396 306.326 321.539C306.863 321.682 307.35 321.872 307.787 322.109C308.241 322.347 308.654 322.624 309.027 322.941L307.252 325.27C306.869 324.843 306.406 324.494 305.862 324.225C305.321 323.939 304.8 323.797 304.299 323.797C303.96 323.797 303.689 323.86 303.486 323.987C303.299 324.114 303.185 324.28 303.143 324.486C303.096 324.724 303.153 324.922 303.315 325.08C303.494 325.239 303.755 325.389 304.098 325.532C304.46 325.658 304.895 325.825 305.404 326.031C305.944 326.237 306.43 326.474 306.861 326.744C307.308 327.013 307.635 327.354 307.844 327.766C308.068 328.178 308.113 328.724 307.976 329.406C307.742 330.578 307.193 331.465 306.329 332.067C305.485 332.654 304.4 332.947 303.075 332.947C302.267 332.947 301.535 332.852 300.878 332.661C300.234 332.487 299.652 332.25 299.13 331.948C298.612 331.632 298.14 331.283 297.716 330.903L299.718 328.526ZM310.771 328.526C311.245 328.986 311.681 329.35 312.079 329.619C312.497 329.873 312.873 330.055 313.206 330.166C313.542 330.261 313.84 330.309 314.098 330.309C314.47 330.309 314.761 330.229 314.97 330.071C315.179 329.913 315.31 329.707 315.36 329.453C315.408 329.215 315.375 329.017 315.261 328.859C315.15 328.685 314.933 328.518 314.609 328.36C314.302 328.201 313.866 328.035 313.304 327.861C312.808 327.671 312.344 327.449 311.91 327.195C311.495 326.926 311.179 326.569 310.96 326.126C310.742 325.682 310.703 325.112 310.842 324.415C310.975 323.749 311.265 323.187 311.713 322.727C312.176 322.268 312.739 321.919 313.4 321.682C314.078 321.444 314.821 321.325 315.629 321.325C316.275 321.325 316.858 321.396 317.379 321.539C317.916 321.682 318.403 321.872 318.841 322.109C319.294 322.347 319.707 322.624 320.08 322.941L318.305 325.27C317.922 324.843 317.459 324.494 316.915 324.225C316.374 323.939 315.853 323.797 315.352 323.797C315.013 323.797 314.742 323.86 314.539 323.987C314.352 324.114 314.238 324.28 314.197 324.486C314.149 324.724 314.206 324.922 314.369 325.08C314.547 325.239 314.808 325.389 315.151 325.532C315.513 325.658 315.949 325.825 316.457 326.031C316.997 326.237 317.483 326.474 317.914 326.744C318.361 327.013 318.688 327.354 318.897 327.766C319.122 328.178 319.166 328.724 319.029 329.406C318.795 330.578 318.246 331.465 317.382 332.067C316.538 332.654 315.453 332.947 314.128 332.947C313.32 332.947 312.588 332.852 311.931 332.661C311.288 332.487 310.705 332.25 310.184 331.948C309.665 331.632 309.194 331.283 308.769 330.903L310.771 328.526ZM323.215 317.451C323.329 316.881 323.631 316.421 324.121 316.073C324.614 315.709 325.151 315.526 325.733 315.526C326.331 315.526 326.795 315.709 327.126 316.073C327.477 316.421 327.595 316.881 327.481 317.451C327.367 318.022 327.063 318.489 326.57 318.854C326.093 319.218 325.556 319.4 324.958 319.4C324.376 319.4 323.912 319.218 323.565 318.854C323.218 318.489 323.101 318.022 323.215 317.451ZM322.756 321.563H326.295L324.108 332.495H320.57L322.756 321.563ZM327.561 327.029C327.793 325.872 328.269 324.866 328.989 324.011C329.71 323.155 330.602 322.49 331.667 322.014C332.731 321.539 333.869 321.301 335.081 321.301C336.293 321.301 337.328 321.539 338.186 322.014C339.061 322.49 339.687 323.155 340.065 324.011C340.46 324.866 340.541 325.872 340.31 327.029C340.082 328.17 339.599 329.168 338.863 330.023C338.142 330.879 337.25 331.544 336.185 332.02C335.137 332.495 334.007 332.733 332.795 332.733C331.583 332.733 330.54 332.495 329.666 332.02C328.791 331.544 328.165 330.879 327.787 330.023C327.408 329.168 327.333 328.17 327.561 327.029ZM331.318 327.029C331.204 327.599 331.227 328.09 331.387 328.502C331.55 328.899 331.803 329.207 332.147 329.429C332.49 329.651 332.904 329.762 333.389 329.762C333.858 329.762 334.308 329.651 334.74 329.429C335.188 329.207 335.565 328.899 335.871 328.502C336.196 328.09 336.415 327.599 336.529 327.029C336.643 326.459 336.62 325.967 336.46 325.555C336.316 325.144 336.065 324.827 335.705 324.605C335.362 324.383 334.956 324.272 334.487 324.272C334.002 324.272 333.544 324.383 333.112 324.605C332.68 324.827 332.301 325.144 331.976 325.555C331.652 325.967 331.432 326.459 331.318 327.029ZM349.996 325.841C350.126 325.191 350.096 324.692 349.908 324.343C349.735 323.995 349.358 323.821 348.776 323.821C348.388 323.821 348.033 323.9 347.711 324.058C347.388 324.217 347.116 324.446 346.894 324.747C346.672 325.048 346.519 325.413 346.433 325.841L345.102 332.495H341.418L343.605 321.563H347.289L346.961 323.203C347.404 322.601 347.934 322.133 348.55 321.8C349.182 321.468 349.91 321.301 350.734 321.301C352.124 321.301 353.061 321.666 353.545 322.395C354.029 323.123 354.14 324.145 353.877 325.46L352.47 332.495H348.665L349.996 325.841Z" fill="white"/>
</svg>
