<svg width="41" height="40" viewBox="0 0 41 40" fill="none" xmlns="http://www.w3.org/2000/svg">
<g id="akar-icons:instagram-fill">
<g id="Group">
<path id="Vector" fill-rule="evenodd" clip-rule="evenodd" d="M13.2684 1.7765C15.2248 1.6865 15.8485 1.6665 20.832 1.6665C25.8154 1.6665 26.4392 1.68817 28.3939 1.7765C30.3486 1.86484 31.6828 2.1765 32.8503 2.62817C34.0728 3.08984 35.1819 3.8115 36.0992 4.74484C37.0332 5.65984 37.7537 6.7665 38.214 7.98984C38.6677 9.1565 38.9779 10.4898 39.068 12.4398C39.158 14.3982 39.178 15.0215 39.178 19.9998C39.178 24.9798 39.1563 25.6032 39.068 27.5582C38.9796 29.5082 38.6677 30.8415 38.214 32.0082C37.7537 33.2317 37.032 34.3402 36.0992 35.2565C35.1819 36.1898 34.0728 36.9098 32.8503 37.3698C31.6828 37.8232 30.3486 38.1332 28.3972 38.2232C26.4392 38.3132 25.8154 38.3332 20.832 38.3332C15.8485 38.3332 15.2248 38.3115 13.2684 38.2232C11.3171 38.1348 9.98282 37.8232 8.81534 37.3698C7.59103 36.9098 6.48176 36.1886 5.56476 35.2565C4.63141 34.3409 3.90914 33.233 3.44829 32.0098C2.99632 30.8432 2.6861 29.5098 2.59604 27.5598C2.50598 25.6015 2.48596 24.9782 2.48596 19.9998C2.48596 15.0198 2.50764 14.3965 2.59604 12.4432C2.68443 10.4898 2.99632 9.1565 3.44829 7.98984C3.90982 6.76664 4.63265 5.65869 5.56643 4.74317C6.48213 3.81067 7.59028 3.08891 8.81368 2.62817C9.98115 2.1765 11.3154 1.8665 13.2668 1.7765H13.2684ZM28.2455 5.0765C26.3108 4.98817 25.7304 4.96984 20.832 4.96984C15.9336 4.96984 15.3532 4.98817 13.4185 5.0765C11.629 5.15817 10.6583 5.4565 10.0112 5.70817C9.15558 6.0415 8.54349 6.4365 7.90138 7.07817C7.2927 7.66992 6.82427 8.39031 6.53043 9.1865C6.27859 9.83317 5.98005 10.8032 5.89832 12.5915C5.80993 14.5248 5.79158 15.1048 5.79158 19.9998C5.79158 24.8948 5.80993 25.4748 5.89832 27.4082C5.98005 29.1965 6.27859 30.1665 6.53043 30.8132C6.82396 31.6082 7.29262 32.3298 7.90138 32.9215C8.49345 33.5298 9.21562 33.9982 10.0112 34.2915C10.6583 34.5432 11.629 34.8415 13.4185 34.9232C15.3532 35.0115 15.9319 35.0298 20.832 35.0298C25.7321 35.0298 26.3108 35.0115 28.2455 34.9232C30.035 34.8415 31.0057 34.5432 31.6528 34.2915C32.5084 33.9582 33.1205 33.5632 33.7626 32.9215C34.3714 32.3298 34.84 31.6082 35.1336 30.8132C35.3854 30.1665 35.6839 29.1965 35.7657 27.4082C35.8541 25.4748 35.8724 24.8948 35.8724 19.9998C35.8724 15.1048 35.8541 14.5248 35.7657 12.5915C35.6839 10.8032 35.3854 9.83317 35.1336 9.1865C34.8 8.3315 34.4047 7.71984 33.7626 7.07817C33.1704 6.46996 32.4495 6.00185 31.6528 5.70817C31.0057 5.4565 30.035 5.15817 28.2455 5.0765V5.0765ZM18.4887 25.6515C19.7974 26.1959 21.2546 26.2694 22.6114 25.8594C23.9683 25.4494 25.1406 24.5814 25.9282 23.4036C26.7158 22.2258 27.0697 20.8113 26.9296 19.4017C26.7895 17.9921 26.164 16.6748 25.16 15.6748C24.5199 15.0356 23.746 14.5462 22.894 14.2417C22.0419 13.9373 21.1329 13.8254 20.2324 13.9142C19.3319 14.003 18.4623 14.2901 17.6862 14.7551C16.91 15.22 16.2467 15.8511 15.744 16.6029C15.2412 17.3548 14.9115 18.2087 14.7787 19.1031C14.6458 19.9976 14.713 20.9103 14.9755 21.7757C15.238 22.6411 15.6892 23.4375 16.2967 24.1077C16.9042 24.7779 17.6528 25.3051 18.4887 25.6515ZM14.164 13.3365C15.0397 12.4615 16.0792 11.7673 17.2233 11.2938C18.3674 10.8202 19.5936 10.5765 20.832 10.5765C22.0703 10.5765 23.2966 10.8202 24.4407 11.2938C25.5848 11.7673 26.6243 12.4615 27.4999 13.3365C28.3756 14.2115 29.0702 15.2504 29.5441 16.3937C30.018 17.537 30.2619 18.7623 30.2619 19.9998C30.2619 21.2373 30.018 22.4627 29.5441 23.606C29.0702 24.7493 28.3756 25.7881 27.4999 26.6632C25.7315 28.4304 23.333 29.4232 20.832 29.4232C18.331 29.4232 15.9325 28.4304 14.164 26.6632C12.3956 24.8959 11.4021 22.4991 11.4021 19.9998C11.4021 17.5006 12.3956 15.1037 14.164 13.3365V13.3365ZM32.3533 11.9798C32.5703 11.7753 32.744 11.5293 32.8642 11.2565C32.9843 10.9836 33.0485 10.6895 33.0528 10.3914C33.0572 10.0933 33.0016 9.79742 32.8895 9.52119C32.7773 9.24496 32.6109 8.99402 32.3999 8.78324C32.189 8.57245 31.9379 8.4061 31.6615 8.29403C31.3851 8.18197 31.0889 8.12646 30.7907 8.13081C30.4924 8.13515 30.198 8.19926 29.925 8.31933C29.652 8.4394 29.4058 8.613 29.2011 8.82984C28.803 9.25155 28.5851 9.81171 28.5935 10.3914C28.602 10.9711 28.8362 11.5246 29.2464 11.9346C29.6566 12.3445 30.2106 12.5786 30.7907 12.587C31.3708 12.5955 31.9313 12.3777 32.3533 11.9798V11.9798Z" fill="#D3AF37"/>
</g>
</g>
</svg>
