<?xml version="1.0" standalone="no"?>
<!DOCTYPE svg PUBLIC "-//W3C//DTD SVG 20010904//EN"
 "http://www.w3.org/TR/2001/REC-SVG-20010904/DTD/svg10.dtd">
<svg version="1.0" xmlns="http://www.w3.org/2000/svg"
 width="20" viewBox="0 0 24 24"
 preserveAspectRatio="xMidYMid meet">
<metadata>
Created by potrace 1.15, written by Peter Selinger 2001-2017
</metadata>
<g transform="translate(0.000000,981.000000) scale(0.100000,-0.100000)"
fill="none" stroke-width="1.5" stroke="yellow">
<path d="M3810 9794 c-52 -7 -114 -16 -137 -19 -42 -6 -43 -7 -49 -55 l-6 -48
-77 -8 -76 -9 -8 -185 c-4 -102 -10 -204 -13 -226 -5 -41 -6 -42 -52 -49 -26
-3 -55 -8 -65 -11 -15 -5 -37 34 -133 230 -63 130 -119 236 -124 236 -20 0
-133 -41 -181 -66 -29 -14 -55 -36 -64 -54 -9 -17 -20 -30 -26 -30 -29 0 -117
-55 -134 -83 -35 -59 -19 -219 39 -402 14 -44 26 -83 26 -87 0 -4 -19 -17 -41
-29 -35 -17 -44 -18 -55 -7 -7 7 -79 105 -159 218 -81 113 -151 204 -155 203
-12 -3 -274 -174 -280 -183 -3 -3 -40 -30 -83 -59 -43 -29 -76 -58 -74 -64 3
-7 46 -110 97 -231 l91 -218 -22 -24 c-12 -13 -26 -24 -31 -24 -5 0 -99 74
-211 164 l-202 165 -63 -69 c-53 -59 -66 -68 -82 -60 -16 8 -35 -8 -129 -107
-61 -64 -111 -120 -111 -124 0 -4 67 -109 150 -234 l150 -227 -31 -39 c-17
-21 -35 -41 -40 -45 -5 -3 -91 46 -192 110 -100 63 -189 117 -197 121 -11 4
-30 -14 -64 -60 -26 -35 -51 -67 -56 -70 -5 -3 -20 1 -33 10 -23 15 -24 14
-123 -121 -54 -74 -97 -139 -96 -142 2 -4 72 -83 155 -176 209 -233 193 -210
173 -254 -9 -20 -25 -47 -34 -60 l-18 -23 -183 70 c-101 39 -187 71 -191 71
-4 0 -18 -26 -30 -57 -40 -101 -33 -95 -91 -73 -47 19 -50 19 -56 2 -3 -9 -30
-78 -59 -152 -41 -105 -50 -138 -41 -147 7 -7 95 -70 197 -141 207 -144 192
-122 164 -247 l-15 -70 -117 12 c-64 7 -152 12 -194 12 l-78 1 0 -37 c0 -81
-3 -83 -84 -76 l-72 6 -18 -144 c-9 -79 -19 -156 -22 -170 -5 -26 -3 -28 128
-69 73 -23 178 -57 233 -75 l100 -32 -3 -109 c-1 -59 -4 -109 -5 -110 -1 -2
-60 -12 -130 -23 -70 -12 -143 -28 -162 -36 -30 -12 -35 -19 -35 -49 0 -34 -1
-35 -57 -46 -60 -13 -103 -29 -103 -39 0 -3 -9 -80 -20 -171 -11 -90 -16 -167
-12 -170 16 -14 245 -43 367 -46 l130 -4 7 -142 c4 -79 4 -146 0 -150 -4 -4
-67 -23 -141 -42 -73 -19 -136 -38 -139 -41 -4 -3 -5 -21 -4 -39 l3 -32 -81
-19 c-45 -10 -84 -24 -85 -29 -2 -6 8 -83 23 -171 l27 -160 30 2 c156 13 487
34 489 31 5 -6 86 -282 83 -283 -145 -99 -437 -311 -437 -318 0 -7 143 -252
154 -264 1 -1 106 29 234 67 127 39 235 70 240 70 8 0 101 -203 114 -247 2 -6
-71 -98 -162 -204 -91 -106 -167 -196 -169 -201 -1 -5 38 -72 89 -148 l92
-139 228 139 229 139 44 -62 c24 -34 62 -89 84 -122 l41 -60 -134 -219 c-74
-121 -133 -222 -132 -226 4 -11 218 -210 225 -210 3 0 34 25 69 55 35 31 72
58 83 60 11 2 70 47 132 99 61 53 116 96 120 96 6 0 140 -90 187 -126 4 -2
-14 -65 -117 -412 l-39 -132 87 -53 c47 -29 103 -63 123 -75 l36 -23 53 76
c51 73 53 75 75 60 13 -8 27 -15 32 -15 4 0 51 61 103 135 52 74 99 135 106
135 13 0 203 -79 216 -90 5 -4 -5 -120 -22 -258 -17 -137 -31 -260 -31 -274 0
-22 8 -26 118 -53 64 -15 125 -30 134 -33 13 -3 25 12 50 62 34 69 40 73 96
57 l33 -10 79 160 c44 87 83 159 88 158 4 0 39 -6 77 -13 l70 -12 24 -255 c13
-139 26 -257 30 -261 5 -5 290 -58 314 -58 3 0 11 32 17 71 9 55 15 69 27 65
19 -8 123 -20 124 -15 0 2 15 96 33 209 l32 205 76 3 c66 2 77 0 82 -15 3 -10
37 -126 76 -258 39 -132 74 -242 78 -246 4 -3 66 0 137 7 72 7 135 13 142 13
7 1 15 23 19 50 l6 50 57 6 c31 3 65 7 76 8 19 2 21 14 32 232 6 127 12 231
12 231 1 1 18 5 39 8 20 4 44 9 53 12 13 3 32 -33 89 -163 40 -93 90 -205 111
-250 l37 -82 134 54 c110 44 133 57 133 74 1 28 9 34 93 66 48 19 72 33 72 44
0 9 -15 126 -33 260 l-33 243 53 26 c37 18 56 23 61 16 94 -149 278 -414 287
-414 6 0 77 29 156 63 122 54 144 67 141 84 -2 16 13 27 83 58 47 21 85 40 85
41 0 2 -25 68 -56 146 -160 412 -152 380 -104 407 11 6 71 -34 224 -152 l209
-161 66 73 c60 66 67 71 82 56 14 -14 24 -6 111 93 l96 109 -132 234 -133 234
30 38 c17 20 34 37 37 37 4 0 96 -54 204 -120 108 -66 201 -120 206 -120 4 0
32 32 60 71 51 70 52 70 75 55 13 -9 26 -16 29 -16 3 0 50 63 105 139 77 108
97 142 88 151 -9 10 -9 12 3 8 8 -3 86 -29 173 -57 l157 -53 0 -124 0 -124
-42 -11 c-24 -6 -117 -32 -208 -58 l-165 -47 0 -29 c0 -26 -5 -30 -40 -38 -22
-5 -41 -11 -43 -12 -5 -4 49 -310 56 -316 4 -4 126 0 271 7 145 8 265 13 267
11 7 -6 55 -238 52 -251 -2 -7 -64 -69 -138 -137 -75 -68 -161 -148 -192 -178
l-55 -54 54 -116 c30 -64 58 -120 63 -125 9 -9 46 3 324 104 93 33 172 57 176
53 4 -4 39 -50 79 -101 l72 -93 -137 -237 c-75 -130 -138 -240 -140 -243 -2
-3 48 -51 110 -107 l114 -101 193 164 c105 90 197 161 203 158 6 -4 54 -36
106 -71 52 -36 96 -66 96 -66 2 -1 -93 -499 -101 -532 -4 -19 8 -27 116 -74
66 -28 122 -50 123 -48 38 62 58 87 68 83 8 -3 53 62 116 169 57 95 109 181
115 190 12 16 20 16 120 -7 59 -13 110 -27 113 -29 3 -3 14 -138 26 -299 11
-162 21 -295 22 -296 1 -1 67 -5 147 -9 l146 -7 7 42 c6 38 8 41 39 41 l33 0
45 238 44 237 100 5 c62 4 104 2 112 -5 6 -5 53 -113 103 -240 51 -126 93
-231 94 -232 0 -1 60 9 131 23 72 13 131 24 133 24 2 0 2 14 0 32 -3 31 -1 33
41 41 l43 9 -6 51 c-11 98 -28 446 -23 460 3 8 35 29 71 48 l66 34 23 -25 c13
-14 97 -105 186 -203 l162 -177 114 77 c63 43 113 83 110 90 -2 7 12 22 32 35
20 13 41 26 46 29 5 3 -37 117 -92 252 -56 135 -101 249 -101 253 0 4 21 32
47 63 26 31 48 57 48 58 1 2 103 -54 226 -123 l224 -126 35 41 c20 23 40 41
45 42 8 0 76 83 167 203 17 22 15 25 -161 225 l-178 203 49 88 c27 50 54 87
61 85 16 -5 447 -95 457 -95 4 0 11 19 16 43 9 39 11 42 40 39 27 -3 32 1 37
25 4 15 19 81 35 146 l30 118 -219 110 c-206 102 -219 111 -219 137 0 32 19
205 23 209 2 1 102 22 223 46 l219 43 5 35 c4 30 9 35 40 39 l35 5 6 65 c4 36
7 102 8 147 l1 82 -42 6 c-24 3 -140 18 -258 33 l-214 27 -27 120 c-15 66 -30
134 -33 151 l-6 31 190 89 c164 77 190 92 190 112 0 17 10 26 40 38 22 9 40
22 40 28 0 18 -57 277 -62 282 -3 2 -117 -19 -254 -46 -137 -28 -255 -49 -263
-48 -7 2 -44 59 -81 128 -66 121 -68 126 -51 145 10 11 91 104 180 207 l162
188 -97 115 c-71 85 -101 114 -113 110 -9 -4 -108 -63 -220 -132 l-204 -125
-90 90 -90 90 43 104 c24 56 71 171 106 255 l62 151 -114 76 c-63 42 -116 76
-119 76 -12 0 -124 -121 -238 -257 l-119 -141 -124 51 c-121 49 -124 51 -124
81 0 17 9 146 20 286 10 140 17 256 16 258 -2 2 -59 16 -125 31 l-122 28 -15
-35 c-7 -19 -14 -39 -14 -44 0 -5 -12 -8 -26 -6 -26 3 -29 -3 -108 -205 l-81
-207 -135 2 -135 3 -31 273 c-18 150 -33 274 -35 276 -2 2 -70 1 -151 -2
l-147 -4 -3 -37 c-3 -34 -5 -36 -40 -39 -21 -2 -38 -6 -38 -10 -2 -54 -39
-505 -42 -506 -7 -5 -212 -65 -214 -63 -1 1 -54 107 -118 234 l-117 233 -32
-14 c-18 -7 -76 -35 -129 -62 -78 -39 -98 -53 -98 -70 0 -15 -12 -26 -41 -39
-50 -23 -52 -4 29 -288 l60 -208 -91 -61 -91 -61 -179 182 -179 182 -82 -77
c-44 -43 -115 -112 -158 -154 l-76 -75 153 -220 c85 -121 154 -226 154 -233 1
-19 -101 -141 -119 -141 -8 -1 -93 25 -188 56 l-174 58 6 43 c3 24 9 48 12 54
4 5 35 8 72 6 l66 -3 28 140 c15 76 25 142 20 146 -4 4 -113 57 -243 119
l-236 112 4 46 c2 26 6 65 9 88 l5 40 177 23 c97 13 185 25 194 27 14 4 16 13
12 48 -7 49 -12 46 115 62 l53 7 -6 56 c-3 31 -8 99 -12 153 -4 53 -9 100 -13
106 -3 5 -112 31 -241 57 -129 25 -243 48 -252 51 -16 5 -18 20 -18 138 l0
134 140 48 c135 47 139 49 142 79 3 28 9 32 75 55 39 14 75 28 79 32 4 4 -1
77 -11 163 l-19 155 -35 0 c-20 0 -136 -7 -259 -16 -123 -9 -225 -14 -228 -12
-5 6 -84 263 -84 275 0 6 94 83 209 171 l209 162 -50 127 c-28 71 -54 131 -57
135 -4 4 -112 -22 -240 -58 -154 -43 -237 -62 -243 -56 -6 6 -44 66 -84 134
l-75 123 181 177 c99 98 180 180 180 183 0 3 -41 67 -91 141 -54 81 -95 134
-103 131 -7 -3 -106 -62 -220 -131 -115 -69 -212 -126 -216 -126 -8 0 -150
220 -150 232 0 4 56 104 125 224 l126 217 -23 26 c-12 14 -66 71 -120 127
l-97 100 -72 -62 c-40 -34 -77 -60 -83 -58 -6 2 -63 -42 -127 -98 -63 -57
-123 -109 -132 -116 -14 -12 -27 -4 -107 69 -49 46 -90 88 -90 93 0 7 47 133
181 484 8 21 0 26 -121 87 -71 36 -133 65 -138 65 -5 0 -32 -30 -61 -66 -29
-36 -58 -63 -64 -61 -7 3 -19 8 -28 11 -11 5 -43 -29 -119 -124 -57 -71 -107
-130 -111 -130 -12 0 -198 100 -203 109 -3 4 13 115 35 247 22 131 38 248 37
258 -2 15 -31 29 -133 63 -71 24 -134 43 -140 43 -5 0 -23 -32 -38 -70 -16
-39 -32 -70 -37 -70 -4 0 -27 7 -50 15 -24 8 -44 14 -45 13 -2 -2 -33 -77 -70
-168 -37 -91 -68 -166 -70 -168 -7 -8 -195 23 -196 33 0 5 -6 123 -12 262 -7
138 -14 254 -17 256 -3 3 -61 14 -130 26 -69 12 -137 24 -151 27 -26 5 -27 4
-39 -66 l-12 -71 -36 8 c-21 4 -52 8 -71 8 l-35 0 -32 -200 c-18 -110 -33
-201 -33 -202 -1 -2 -45 -3 -99 -3 l-97 0 -23 113 c-13 61 -37 181 -54 265
-18 86 -36 152 -42 151 -6 -1 -54 -7 -106 -15z m3929 -5441 c77 -5 91 -9 89
-22 -2 -9 -13 -16 -27 -16 -20 0 -30 -16 -74 -110 -28 -60 -52 -112 -53 -114
-3 -3 -123 78 -147 99 -6 5 10 61 42 143 12 31 17 31 170 20z m310 -592 c1 -8
-13 -58 -29 -112 l-31 -99 -132 6 c-73 4 -135 10 -140 13 -4 4 -2 22 4 40 11
31 14 33 48 26 75 -14 71 -17 113 85 64 160 50 148 112 98 30 -24 55 -49 55
-57z m-651 -183 c119 -31 122 -33 122 -60 0 -26 -3 -28 -38 -28 l-38 0 -13
-117 c-6 -64 -14 -119 -16 -121 -4 -4 -235 208 -235 216 0 9 83 142 89 142 3
0 61 -14 129 -32z"/>
<path d="M8260 9186 l-125 -32 -3 -32 c-3 -27 -8 -33 -43 -42 -22 -6 -39 -17
-39 -25 0 -7 18 -119 40 -247 22 -128 36 -235 32 -238 -4 -3 -23 -18 -43 -33
l-36 -26 -253 90 c-139 49 -254 89 -256 89 -2 0 -16 -19 -31 -42 -16 -24 -34
-43 -42 -43 -13 0 -142 -196 -140 -213 0 -4 102 -73 227 -153 l227 -146 3 -79
2 -79 -190 -124 c-104 -68 -190 -130 -190 -137 0 -8 -18 -26 -40 -40 -22 -15
-40 -29 -40 -31 0 -3 28 -54 61 -115 46 -82 66 -108 78 -105 9 3 120 48 246
102 l230 96 88 -91 c77 -79 88 -94 83 -118 -11 -54 -59 -482 -55 -486 2 -3 67
-6 143 -8 l139 -3 12 35 c9 27 19 36 40 40 27 5 31 13 92 196 l63 190 87 10
87 9 189 -167 c105 -93 194 -168 199 -168 15 0 198 142 193 150 -2 4 16 22 41
40 l45 32 -17 26 c-10 15 -73 111 -142 213 l-124 186 36 71 35 70 245 7 245 7
3 37 c3 34 5 36 39 39 35 3 37 5 43 49 3 25 6 88 6 139 0 89 -1 94 -22 98 -13
3 -135 22 -273 42 -137 20 -251 37 -253 39 -15 14 -80 170 -75 178 4 7 69 106
145 221 77 115 135 213 131 217 -20 19 -199 159 -203 159 -3 0 -95 -83 -203
-185 -162 -152 -201 -184 -220 -180 -12 3 -60 13 -106 23 l-83 18 -92 249
c-51 137 -97 250 -102 251 -5 1 -65 -13 -134 -30z"/>
</g>
</svg>
