<svg width="500" height="500" viewBox="0 0 500 500" fill="none" xmlns="http://www.w3.org/2000/svg">
<rect width="500" height="500" fill="white"/>
<path d="M120 60H500L440 400H60L120 60Z" fill="#DEEDFC"/>
<path d="M366.466 184.467C366.466 184.467 354.67 187.63 345.581 193.608C338.584 198.208 345.997 198.761 346.483 200.685C346.592 201.117 343.101 201.827 344.262 204.532C350.214 218.411 357.389 233.874 357.389 233.874C357.389 233.874 354.121 233.457 352.019 232.324C349.916 231.19 335.032 197.387 334.616 194.089C334.199 190.791 347.939 179.661 347.939 179.661L367.507 180.485L366.466 184.467Z" fill="#D3AF37"/>
<path d="M318.898 157.193C314.419 160.487 308.288 164.825 300.896 172.445C293.503 180.077 273.522 198.731 273.522 198.731C273.522 198.731 258.64 190.27 252.183 187.601C245.725 184.92 229.071 184.501 229.071 184.501C229.071 184.501 230.321 179.765 231.594 178.635C232.681 177.667 236.464 177.602 238.921 177.419L239.28 178.312C239.28 178.312 250.099 178.358 251.142 178.217C252.175 178.067 248.575 167.042 263.011 161.003C277.448 154.965 294.233 155.492 294.233 155.492L293.874 152.779C297.722 152.833 295.102 152.543 298.32 151.832C302.092 151.015 310.68 152.866 316.192 150.207C321.715 147.548 318.584 146.17 318.584 146.17C318.584 146.17 322.443 145.654 323.899 148.591C325.356 151.521 323.377 153.9 318.898 157.193Z" fill="#D3AF37"/>
<path d="M324.37 154.498L322.277 155.862C322.009 155.514 321.849 155.304 321.849 155.304L321.676 156.254L321.41 157.709L296.727 183.164L282.159 203.109L284.656 245.617L295.938 252.69C292.514 236.187 296.001 224.885 300.628 214.165C309.452 193.721 323.616 177.992 327.902 172.868C327.902 172.868 331.962 168.839 333.524 168.221C335.085 167.603 336.699 169.096 339.925 169.766C339.925 169.766 331.583 165.775 324.37 154.498Z" fill="#D3AF37"/>
<path d="M204.405 178.732L189.11 177.3C189.11 177.3 183.381 166.568 179.218 164.717C175.054 162.866 147.681 164.717 147.681 164.717L146.127 163.243L153.617 161.93L182.555 158.195L185.631 159.002L184.74 159.809C184.74 159.809 185.014 162.26 186.957 167.29C188.425 171.088 189.778 172.642 190.053 172.796C191.119 173.391 198.451 174.53 200.735 175.123C202.267 176.716 204.405 178.732 204.405 178.732Z" fill="#D3AF37"/>
<path d="M328.069 272.055L240.979 287.365L335.131 276.57" fill="#D3AF37"/>
<path d="M187.493 190.961L134.314 200.31L194.555 195.476" fill="#D3AF37"/>
<path d="M169.179 225.921L116 235.268L176.242 230.435" fill="#D3AF37"/>
<path d="M326.965 128.096L242.398 141.735L334.028 132.611" fill="#D3AF37"/>
<path d="M335.991 133.762L289.305 141.291L339.89 136.254" fill="#D3AF37"/>
<path d="M198.477 197.509L166.617 203.11L202.708 200.214" fill="#D3AF37"/>
<path d="M337.974 278.182L277.646 288.786L343.975 282.368" fill="#D3AF37"/>
<path d="M371.875 279.166L311.546 289.771L377.875 283.353" fill="#D3AF37"/>
<path d="M355.599 137.85C355.599 137.85 351.618 127.031 343.621 124.524C346.925 126.946 348.668 129.625 348.824 131.996C349.034 135.178 344.253 134.666 339.064 129.808C339.064 129.808 343.605 139.651 349.865 140.55C356.126 141.449 355.905 138.705 355.599 137.85Z" fill="#D3AF37"/>
<path d="M413.041 207.116C420.108 229.074 411.596 254.779 403.822 262.809C413.215 246.556 413.324 228.612 411.889 217.557C410.987 210.647 408.737 205.244 406.269 200.809C402.16 193.435 396.517 189.248 391.017 186.858C377.591 184.662 360.86 193.381 358.099 194.963C354.338 197.105 352.871 200.948 352.696 205.383C357.881 201.713 366.796 202.854 366.796 202.854C377.753 205.232 383.874 211.896 386.668 221.615C389.635 231.895 387.918 241.797 383.113 251.238C378.297 260.742 370.992 267.598 360.664 270.838C348.609 274.639 336.89 269.332 331.334 258.105C323.551 242.347 330.932 222.004 340.445 213.564C343.195 219.56 345.913 225.491 348.663 231.421C350.783 236.028 350.794 236.028 356.186 239.43C353.827 240.474 349.196 238.666 348.022 236.18C346.489 232.875 345.021 229.549 343.391 225.954C339.607 231.896 338.14 237.913 339.434 244.435C341.771 256.114 353.969 260.333 363.839 252.927C371.72 247.029 375.471 235.565 373.08 226.503C371.569 220.809 367.71 217.009 361.252 216.556C361.252 216.556 361.241 216.556 361.231 216.556C359.132 216.438 356.11 216.955 354.611 217.655C356.98 225.61 360.666 232.498 360.731 232.799C360.883 233.467 353.469 232.391 352.621 231.68L337.293 198.204C336.358 196.159 336.641 193.78 338.043 192.016C340.152 189.325 343.501 185.019 346.729 183.286C348.719 182.231 347.87 184.115 353.925 183.792C357.546 183.598 360.72 183.103 364.231 182.651C362.883 183.199 361.252 183.845 359.524 184.502C353.698 186.74 345.707 187.128 345.707 187.128C345.707 187.128 351.848 187.752 357.545 186.568C361.002 185.847 368.611 183.942 373.242 182.78C375.852 182.112 378.548 181.789 381.243 181.8C383.983 181.821 386.603 181.875 387.69 182.037C390.244 182.424 392.223 183.339 392.463 183.457C392.202 183.156 389.701 180.476 387.614 179.894C385.472 179.302 382.787 178.936 380.33 178.72C381.776 177.752 382.254 176.804 382.091 175.168C379.351 177.676 372.698 177.16 367.904 176.643C356.63 175.405 347.184 171.455 342.205 172.078C334.096 173.102 312.224 197.525 304.635 211.614C294.916 229.676 295.938 252.689 295.938 252.689C295.938 252.689 288.427 237.458 293.09 215.242C294.209 217.663 296.047 218.719 297.079 216.135C299.178 210.925 301.526 205.984 303.971 201.378C301.46 201.808 296.992 202.788 292.503 204.887C292.753 204.66 296.84 201.066 303.048 199.182C304.678 198.676 306.048 197.579 306.896 196.114C307.755 194.629 308.624 193.186 309.483 191.787C307.308 192.078 301.243 193.09 295.144 195.953C295.481 195.651 300.96 190.851 309.037 188.978C310.711 188.59 312.157 187.557 313.114 186.147C314.191 184.521 315.256 182.993 316.288 181.551C314.691 181.734 307.352 182.725 299.993 186.191C299.993 186.191 306.537 180.249 316.245 178.333C317.996 177.989 319.582 177.085 320.67 175.685C322.029 173.921 323.268 172.403 324.312 171.144C326.442 168.571 326.551 164.911 324.54 162.253C322.942 160.144 321.409 158.033 321.409 157.711C321.409 157.044 328.073 153.815 328.073 153.815C328.073 153.815 335.715 162.038 341.749 165.751C345.391 167.99 357.664 172.931 367.47 174.018C371.569 174.459 381.102 175.31 379.982 168.087C379.514 168.528 378.982 168.938 378.384 169.292C377.46 169.831 376.264 169.475 375.808 168.517C374.503 165.675 371.808 159.55 370.72 154.653C370.568 153.878 370.426 152.059 371.111 151.994C371.752 151.919 373.307 153.479 373.492 153.674C372.143 151.65 370.198 149.367 370.198 149.367C366.784 145.234 362.632 141.672 357.511 138.809C358.859 141.822 359.804 145.568 355.956 145.257C346.77 144.514 339.194 139.368 338.432 138.831C339.106 139.218 348.085 143.578 353.086 143.534C356.598 143.502 356.619 140.844 355.597 137.851C355.412 138.798 354.781 139.412 353.521 139.423C349.575 139.434 344.313 135.064 339.921 130.662C332.844 123.546 329.312 122.051 329.312 122.051C332.899 121.05 340.91 121.674 343.617 122.299C344.737 122.547 345.748 122.976 346.672 123.515C344.117 121.158 341.53 120.059 338.671 119.576C331.193 118.306 316.864 118.994 313.733 123.084C316.462 124.656 318.994 126.012 321.441 127.519C323.996 129.091 326.496 130.727 328.931 132.46C332.214 134.829 337.193 139.629 334.845 142.018C332.703 144.203 322.723 140.231 319.136 141.168L314.734 145.732L314.712 145.775C314.506 146.065 314.343 146.335 314.201 146.604L296.471 150.726C295.884 150.866 295.362 151.134 294.916 151.501C292.699 151.286 290.329 151.189 287.894 151.33C275.425 152.051 261.607 156.636 259.086 157.701C250.933 161.146 245.062 167.658 242.138 173.825C241.333 175.526 240.441 176.279 238.138 176.592C235.452 176.958 231.615 177.119 230.158 178.002C229.854 178.185 229.484 178.605 229.115 179.099C227.734 180.929 225.549 181.952 223.266 181.758L207.569 180.402C206.916 180.348 206.428 179.832 206.362 179.197C206.351 179.035 206.319 178.874 206.286 178.734C206.123 178.174 205.678 177.916 205.525 177.819C200.861 174.891 197.676 169.541 197.774 164.192C197.785 163.234 197.72 161.317 197.492 160.919C197.177 160.413 196.328 160.37 195.045 160.101C191.262 159.283 183.283 157.755 182.74 157.819C171.955 159.079 152.072 161.404 142.821 162.555C141.974 162.663 141.571 163.621 142.06 164.298C143.125 165.751 144.093 167.119 144.277 167.237C154.191 173.071 225.125 213.629 225.342 213.845C225.56 214.06 225.201 214.501 224.679 214.501C224.571 214.501 223.299 214.124 221.44 213.543C221.397 213.532 221.342 213.522 221.288 213.5C218.788 212.994 206.014 214.651 205.83 214.738C204.568 215.298 202.71 218.107 201.84 219.216C190.871 212.025 175.413 211.433 169.14 213.048C167.52 213.812 175.52 213.468 185.099 216.912C188.273 218.064 195.513 222.229 197.166 225.523C197.546 226.18 196.274 225.383 196.1 225.254C185.316 216.88 170.684 216.61 159.53 222.262C142.061 231.098 135.07 250.991 134.386 266.533C133.865 278.697 136.114 292.603 144.746 302C133.31 272.636 145.181 252.627 150.312 245.878C150.573 245.545 156.987 236.751 167.999 234.092C176.739 231.992 187.708 234.145 191.937 241.949L197.231 241.356L192.491 243.079L177.533 249.203C176.228 249.731 174.804 249.85 173.434 249.537C171.467 249.085 168.325 248.686 165.607 249.731C159.052 252.261 155.4 258.944 155.694 265.962C156.139 276.629 164.151 278.426 169.141 277.081C175.175 275.445 178.99 270.15 180.685 264.616C181.326 262.549 182.316 261.559 184.414 261.075C184.773 260.989 185.121 260.903 185.479 260.827C185.023 263.475 183.914 267.329 181.196 271.538C178.859 275.165 172.728 278.944 169.814 279.287C169.814 279.287 176.956 280.224 182.761 272.054C185.022 268.857 186.599 265.068 187.62 262C188.001 260.859 188.957 259.998 190.142 259.707C195.307 258.464 209.405 254.867 218.509 252.614C218.393 252.989 218.351 253.12 218.225 253.479C212.489 255.517 204.599 258.28 201.632 259.266C199.59 259.944 199.013 260.568 198.861 262.591C197.915 274.56 192.414 283.914 181.793 289.91C180.076 290.878 178.326 291.665 176.564 292.224C176.999 292.149 177.423 292.095 177.836 292.03C177.912 292.009 178 291.988 178.087 291.977C182.675 291.03 196.371 286.746 200.535 268.533C200.438 269.449 198.437 284.13 186.708 290.641C197.09 288.994 206.156 287.53 214.538 286.229C216.212 283.086 217.56 279.813 218.636 276.39L233.399 273.7C228.985 268.436 227.343 264.486 227.257 264.282C233.443 272.333 243.955 281.569 247.271 281.16H247.282C247.282 281.16 298.028 272.86 317.465 269.61C311.301 249.837 318.313 236.458 318.618 235.887C314.704 250.548 318.629 263.292 321.412 268.932C326.369 279.147 335.131 288.566 347.926 291.806C393.8 303.473 431.967 247.082 413.041 207.116ZM366.97 245.531C371.982 238.244 373.384 223.391 364.253 218.697C374.135 222.777 373.091 238.643 367.819 246.08C364.906 250.354 360.296 253.754 355.035 254.379C349.937 255.047 344.055 252.517 342.239 247.555C344.359 252.237 350.023 254.433 354.936 253.669C359.881 252.873 364.263 249.655 366.97 245.531ZM337.226 150.262C347.575 150.939 361.251 161.478 361.914 161.994C361.578 161.607 355.99 155.385 351.684 152.867C350.684 152.274 349.716 151.747 348.804 151.262C352.587 151.855 356.109 152.791 358.099 154.255C364.437 158.904 368.469 164.75 370.492 168.204C371.231 169.464 370.96 170.82 369.492 170.669C360.381 169.765 355.435 167.612 348.826 164.103C339.988 159.399 333.15 150.208 333.15 150.208C333.15 150.208 334.781 150.186 337.226 150.262ZM167.107 268.491C164.552 268.513 162.965 266.855 162.921 264.164C162.845 260.579 166.03 256.79 169.204 256.673C171.651 256.576 173.498 258.341 173.596 260.892C173.705 264.595 170.411 268.47 167.107 268.491ZM296.07 152.834C296.863 152.522 297.809 153.017 298.168 153.933C298.537 154.847 298.19 155.859 297.385 156.161C296.592 156.473 295.646 155.989 295.287 155.063C294.917 154.147 295.265 153.146 296.07 152.834ZM231.647 181.423C231.908 180.723 232.256 179.884 232.593 179.636C234.006 178.624 237.833 178.323 240.736 178.258C242.845 178.193 243.747 176.525 244.563 174.609C245.845 171.596 248.617 167.936 252.433 164.761C257.238 160.768 261.717 158.786 268.783 156.946C272.991 155.849 280.514 153.975 288.428 153.675C290.319 153.599 292.026 153.653 293.57 153.771C293.483 154.31 293.515 154.858 293.69 155.407C293.701 155.439 293.711 155.472 293.723 155.493C294.342 157.302 296.343 158.26 298.202 157.787L317.269 152.922C319.085 152.458 320.291 150.586 319.825 148.788C319.825 148.767 319.813 148.734 319.803 148.713C319.661 148.186 319.389 147.734 319.042 147.357L319.053 147.346C319.053 147.346 322.009 149.262 320.944 152.501C320.532 153.782 319.607 154.363 317.846 154.977L316.596 155.333C316.118 155.473 315.846 155.968 315.998 156.441C315.998 156.441 315.998 156.451 316.009 156.451C316.129 156.871 315.89 157.313 315.477 157.42C311.998 158.324 298.67 161.779 297.257 162.296C296.431 162.598 295.29 163.243 294.452 163.738C293.724 164.179 292.843 164.276 292.039 164.028C289.365 163.189 286.082 162.285 284.418 162.295C278.852 162.316 263.198 166.902 262.22 167.192C263.264 167.031 281.995 164.06 284.702 165.47C285.56 165.922 286.571 166.826 287.854 167.279C291.463 168.527 289.832 170.045 289.006 171.552C284.419 179.905 278.918 191.132 272.483 195.825C271.265 196.718 265.515 194.039 261.329 190.669L258.263 188.527C257.719 188.15 257.165 187.796 256.589 187.451C256.274 187.257 250.448 183.759 245.664 179.917C246.392 181.284 247.446 182.856 248.806 184.287C247.469 183.964 246.099 183.728 244.707 183.61L232.39 182.555C231.822 182.499 231.462 181.939 231.647 181.423ZM265.065 207.622C256.259 202.919 254.259 197.698 254.15 197.375C257.781 200.766 263.304 203.586 267.533 205.438C270.739 206.848 272.294 208.85 271.62 213.704C271.076 217.515 270.642 220.453 270.032 224.544C268.315 236.061 262.053 246.222 252.324 251.399C249.649 252.831 246.715 253.875 243.54 254.467C257.814 251.151 265.738 238.697 267.205 223.79C267.705 218.806 267.955 216.029 268.031 213.274C268.109 210.937 267.142 208.731 265.065 207.622ZM181.749 160.95C182.206 160.907 182.521 160.53 182.554 160.078C182.619 159.163 183.098 158.786 183.098 158.786C183.098 158.786 182.979 160.444 183.609 160.53C185.283 160.734 193.176 162.22 195.316 162.629C195.621 162.694 195.849 162.952 195.86 163.275C195.893 164.115 195.926 165.719 196.002 166.364C196.654 171.875 199.307 175.126 202.188 177.3C202.188 177.3 199.133 176.051 189.915 174.856C188.752 174.706 186.696 170.583 185.099 166.891C183.968 164.254 181.294 162.597 178.402 162.726L149.039 164.028L181.749 160.95ZM228.31 211.4C227.517 211.26 160.116 173.576 154.898 170.638C160.149 173.351 226.875 207.826 228.419 207.762C231.604 205.696 234.42 204.943 234.42 204.943C234.42 204.943 231.256 207.18 228.31 211.4ZM249.215 278.792C243.91 277.651 237.539 270.655 237.148 270.214C237.638 270.579 245.964 276.877 250.781 276.177L308.919 267.167C311.996 268.114 314.388 268.297 314.388 268.297L249.215 278.792ZM387.027 256.738C381.885 265.521 373.448 272.808 363.263 274.928C353.62 277.35 341.554 276.004 335.129 267.77C341.999 275.38 353.533 276.273 362.937 273.668C372.743 271.278 380.625 264.465 385.528 255.876C395.311 239.902 397.301 212.993 377.418 203.886C398.647 212.1 396.962 240.301 387.027 256.738Z" fill="#002D49"/>
<path d="M153.588 327.542L144.724 348.506H133.811L153.687 305.346L164.434 330.42L190.287 305.346L184.267 348.506H173.354L177.068 327.542L160.153 344.689L153.588 327.542ZM192.342 335C193.199 332.142 194.64 329.656 196.663 327.542C198.687 325.428 201.101 323.784 203.906 322.61C206.711 321.435 209.646 320.848 212.711 320.848C215.776 320.848 218.338 321.435 220.397 322.61C222.497 323.784 223.925 325.428 224.681 327.542C225.477 329.656 225.446 332.142 224.589 335C223.743 337.818 222.288 340.285 220.224 342.399C218.2 344.513 215.786 346.157 212.981 347.331C210.217 348.506 207.303 349.093 204.237 349.093C201.172 349.093 198.589 348.506 196.489 347.331C194.39 346.157 192.962 344.513 192.206 342.399C191.451 340.285 191.496 337.818 192.342 335ZM201.844 335C201.421 336.409 201.364 337.623 201.672 338.641C201.991 339.619 202.559 340.383 203.376 340.931C204.192 341.479 205.213 341.753 206.439 341.753C207.625 341.753 208.79 341.479 209.935 340.931C211.122 340.383 212.148 339.619 213.013 338.641C213.932 337.623 214.602 336.409 215.025 335C215.448 333.591 215.505 332.377 215.198 331.359C214.931 330.341 214.369 329.558 213.511 329.01C212.695 328.462 211.694 328.188 210.509 328.188C209.283 328.188 208.097 328.462 206.952 329.01C205.806 329.558 204.774 330.341 203.856 331.359C202.938 332.377 202.267 333.591 201.844 335ZM230.9 321.494H249.782L247.58 328.834H228.697L230.9 321.494ZM238.684 312.099H247.573L236.651 348.506H227.762L238.684 312.099ZM248.021 335C248.878 332.142 250.319 329.656 252.342 327.542C254.366 325.428 256.78 323.784 259.585 322.61C262.39 321.435 265.324 320.848 268.39 320.848C271.455 320.848 274.017 321.435 276.076 322.61C278.176 323.784 279.604 325.428 280.359 327.542C281.156 329.656 281.125 332.142 280.268 335C279.422 337.818 277.967 340.285 275.903 342.399C273.879 344.513 271.465 346.157 268.66 347.331C265.896 348.506 262.982 349.093 259.916 349.093C256.851 349.093 254.268 348.506 252.168 347.331C250.068 346.157 248.641 344.513 247.885 342.399C247.13 340.285 247.175 337.818 248.021 335ZM257.523 335C257.1 336.409 257.043 337.623 257.351 338.641C257.67 339.619 258.238 340.383 259.054 340.931C259.871 341.479 260.892 341.753 262.118 341.753C263.304 341.753 264.469 341.479 265.614 340.931C266.8 340.383 267.826 339.619 268.692 338.641C269.611 337.623 270.281 336.409 270.704 335C271.127 333.591 271.184 332.377 270.877 331.359C270.61 330.341 270.048 329.558 269.19 329.01C268.374 328.462 267.373 328.188 266.188 328.188C264.962 328.188 263.776 328.462 262.631 329.01C261.485 329.558 260.453 330.341 259.535 331.359C258.617 332.377 257.946 333.591 257.523 335ZM290.748 331.3L293.426 322.375H325.918L323.241 331.3H290.748ZM323.851 307.401H334.212L321.88 348.506H311.519L323.851 307.401ZM295.037 307.401H305.397L293.066 348.506H282.705L295.037 307.401ZM342.838 337.936C342.368 339.502 342.305 340.735 342.648 341.635C343.003 342.497 343.936 342.927 345.448 342.927C346.47 342.927 347.387 342.732 348.199 342.34C349.052 341.949 349.795 341.381 350.427 340.637C351.059 339.893 351.533 338.993 351.85 337.936L356.783 321.494H366.04L357.937 348.506H348.679L349.895 344.454C348.602 345.902 347.132 347.057 345.484 347.919C343.847 348.741 341.987 349.152 339.903 349.152C336.388 349.152 334.083 348.251 332.988 346.451C331.946 344.611 331.907 342.086 332.87 338.875L338.084 321.494H347.771L342.838 337.936ZM388.181 302.703L374.44 348.506H365.183L378.923 302.703H388.181ZM401.543 335C400.639 338.014 399.216 340.578 397.274 342.692C395.384 344.767 393.253 346.353 390.881 347.449C388.549 348.545 386.219 349.093 383.889 349.093C381.559 349.093 379.645 348.525 378.147 347.39C376.648 346.255 375.684 344.63 375.256 342.516C374.828 340.402 375.048 337.897 375.917 335C376.798 332.064 378.081 329.558 379.766 327.484C381.463 325.37 383.401 323.745 385.581 322.61C387.76 321.474 390.015 320.907 392.345 320.907C394.675 320.907 396.676 321.455 398.35 322.551C400.065 323.647 401.244 325.233 401.889 327.307C402.574 329.382 402.459 331.946 401.543 335ZM391.795 335C392.218 333.591 392.276 332.377 391.968 331.359C391.672 330.302 391.095 329.5 390.238 328.952C389.392 328.364 388.356 328.071 387.13 328.071C386.068 328.071 384.943 328.345 383.757 328.893C382.612 329.441 381.554 330.243 380.583 331.3C379.623 332.318 378.926 333.551 378.492 335C378.057 336.448 378.008 337.701 378.345 338.758C378.694 339.776 379.276 340.559 380.093 341.107C380.95 341.655 381.91 341.929 382.973 341.929C384.199 341.929 385.405 341.655 386.591 341.107C387.789 340.52 388.847 339.717 389.766 338.699C390.696 337.642 391.373 336.409 391.795 335Z" fill="#D3AF37"/>
<path d="M126.295 368.448L127.013 364.859H140.44L139.722 368.448H135.044L132.435 381.495H128.339L130.948 368.448H126.295ZM138.457 370.563H142.286L143.491 376.172L147.979 369.731L149.963 376.172L153.411 370.563H157.24L149.172 382.184L146.79 375.672L141.877 382.184L138.457 370.563ZM156.392 376.029C156.623 374.872 157.099 373.866 157.819 373.011C158.54 372.155 159.432 371.49 160.497 371.014C161.562 370.539 162.7 370.301 163.912 370.301C165.123 370.301 166.158 370.539 167.017 371.014C167.891 371.49 168.517 372.155 168.896 373.011C169.29 373.866 169.372 374.872 169.14 376.029C168.912 377.17 168.43 378.168 167.693 379.023C166.973 379.879 166.08 380.544 165.016 381.02C163.967 381.495 162.837 381.733 161.625 381.733C160.413 381.733 159.37 381.495 158.496 381.02C157.622 380.544 156.995 379.879 156.617 379.023C156.239 378.168 156.164 377.17 156.392 376.029ZM160.148 376.029C160.034 376.599 160.057 377.09 160.217 377.502C160.38 377.899 160.634 378.207 160.977 378.429C161.321 378.651 161.735 378.762 162.219 378.762C162.688 378.762 163.138 378.651 163.57 378.429C164.019 378.207 164.396 377.899 164.701 377.502C165.026 377.09 165.245 376.599 165.359 376.029C165.473 375.459 165.45 374.967 165.29 374.555C165.147 374.144 164.895 373.827 164.535 373.605C164.192 373.383 163.786 373.272 163.317 373.272C162.833 373.272 162.374 373.383 161.942 373.605C161.51 373.827 161.131 374.144 160.807 374.555C160.482 374.967 160.263 375.459 160.148 376.029ZM195.063 374.342L200.256 364.859H205.127L194.261 382.469L190.79 372.44L183.331 382.469L179.509 364.859H184.356L185.805 374.342L192.472 364.027L195.063 374.342ZM210.729 362.958L207.021 381.495H203.337L207.045 362.958H210.729ZM211.915 374.841C212.045 374.191 212.023 373.692 211.851 373.343C211.678 372.995 211.293 372.821 210.695 372.821C210.307 372.821 209.95 372.908 209.625 373.082C209.302 373.24 209.03 373.47 208.808 373.771C208.59 374.056 208.438 374.413 208.352 374.841H207.722C207.896 373.969 208.198 373.185 208.629 372.488C209.062 371.775 209.611 371.212 210.275 370.8C210.958 370.373 211.76 370.159 212.681 370.159C213.602 370.159 214.306 370.317 214.792 370.634C215.294 370.951 215.613 371.418 215.748 372.036C215.882 372.654 215.86 373.415 215.679 374.318L214.244 381.495H210.584L211.915 374.841ZM222.76 381.733C221.467 381.733 220.39 381.503 219.529 381.044C218.687 380.568 218.093 379.903 217.747 379.047C217.401 378.192 217.343 377.186 217.575 376.029C217.809 374.857 218.262 373.843 218.934 372.987C219.606 372.131 220.457 371.474 221.486 371.014C222.531 370.555 223.7 370.325 224.993 370.325C226.285 370.325 227.332 370.547 228.132 370.991C228.935 371.418 229.488 372.044 229.792 372.868C230.096 373.692 230.13 374.69 229.896 375.863C229.861 376.037 229.826 376.211 229.791 376.385C229.76 376.544 229.717 376.679 229.662 376.789H219.483L219.882 374.793H226.765L225.674 375.886C225.777 375.775 225.869 375.641 225.949 375.482C226.048 375.308 226.109 375.165 226.131 375.055C226.226 374.579 226.22 374.167 226.112 373.819C226.004 373.47 225.807 373.201 225.522 373.011C225.237 372.821 224.876 372.726 224.44 372.726C223.891 372.726 223.406 372.844 222.987 373.082C222.568 373.32 222.212 373.684 221.92 374.175C221.647 374.651 221.43 375.253 221.268 375.981C221.135 376.647 221.118 377.217 221.217 377.693C221.316 378.168 221.534 378.532 221.871 378.786C222.211 379.023 222.664 379.142 223.229 379.142C223.876 379.142 224.449 379.023 224.949 378.786C225.465 378.548 225.908 378.192 226.277 377.716L229.393 378.501C228.595 379.578 227.642 380.386 226.533 380.925C225.439 381.463 224.182 381.733 222.76 381.733ZM236.653 381.733C235.36 381.733 234.283 381.503 233.422 381.044C232.58 380.568 231.986 379.903 231.64 379.047C231.294 378.192 231.237 377.186 231.468 376.029C231.703 374.857 232.156 373.843 232.828 372.987C233.5 372.131 234.35 371.474 235.379 371.014C236.425 370.555 237.593 370.325 238.886 370.325C240.179 370.325 241.225 370.547 242.025 370.991C242.828 371.418 243.381 372.044 243.685 372.868C243.989 373.692 244.024 374.69 243.789 375.863C243.754 376.037 243.72 376.211 243.685 376.385C243.653 376.544 243.61 376.679 243.555 376.789H233.376L233.775 374.793H240.659L239.567 375.886C239.67 375.775 239.762 375.641 239.842 375.482C239.942 375.308 240.002 375.165 240.025 375.055C240.12 374.579 240.113 374.167 240.005 373.819C239.897 373.47 239.701 373.201 239.415 373.011C239.13 372.821 238.77 372.726 238.333 372.726C237.784 372.726 237.3 372.844 236.881 373.082C236.461 373.32 236.106 373.684 235.814 374.175C235.541 374.651 235.323 375.253 235.162 375.981C235.028 376.647 235.011 377.217 235.11 377.693C235.209 378.168 235.427 378.532 235.764 378.786C236.104 379.023 236.557 379.142 237.123 379.142C237.769 379.142 238.342 379.023 238.842 378.786C239.358 378.548 239.801 378.192 240.171 377.716L243.286 378.501C242.489 379.578 241.535 380.386 240.426 380.925C239.333 381.463 238.075 381.733 236.653 381.733ZM248.63 362.958H252.314L248.607 381.495H244.923L248.63 362.958ZM252.855 377.526C253.328 377.986 253.764 378.35 254.163 378.619C254.581 378.873 254.956 379.055 255.29 379.166C255.626 379.261 255.924 379.309 256.182 379.309C256.554 379.309 256.844 379.229 257.054 379.071C257.263 378.913 257.393 378.707 257.444 378.453C257.492 378.215 257.458 378.017 257.345 377.859C257.234 377.685 257.017 377.518 256.693 377.36C256.386 377.201 255.95 377.035 255.387 376.861C254.892 376.671 254.428 376.449 253.993 376.195C253.579 375.926 253.262 375.569 253.044 375.126C252.826 374.682 252.786 374.112 252.926 373.415C253.059 372.749 253.349 372.187 253.796 371.727C254.26 371.268 254.822 370.919 255.484 370.682C256.162 370.444 256.904 370.325 257.712 370.325C258.359 370.325 258.942 370.396 259.463 370.539C260 370.682 260.487 370.872 260.924 371.109C261.378 371.347 261.791 371.624 262.164 371.941L260.389 374.27C260.006 373.843 259.543 373.494 258.999 373.225C258.458 372.939 257.937 372.797 257.436 372.797C257.097 372.797 256.826 372.86 256.623 372.987C256.436 373.114 256.322 373.28 256.28 373.486C256.233 373.724 256.29 373.922 256.452 374.08C256.631 374.239 256.891 374.389 257.235 374.532C257.597 374.658 258.032 374.825 258.54 375.031C259.081 375.237 259.567 375.474 259.997 375.744C260.445 376.013 260.772 376.354 260.981 376.766C261.205 377.178 261.249 377.724 261.113 378.406C260.879 379.578 260.33 380.465 259.466 381.067C258.622 381.654 257.537 381.947 256.212 381.947C255.404 381.947 254.672 381.852 254.015 381.661C253.371 381.487 252.789 381.25 252.267 380.948C251.749 380.632 251.277 380.283 250.853 379.903L252.855 377.526ZM262.017 377.407L262.64 374.294H267.778L267.155 377.407H262.017ZM273.277 373.177C273.081 374.159 273.1 375.031 273.336 375.791C273.591 376.536 274.031 377.122 274.656 377.55C275.298 377.978 276.103 378.192 277.073 378.192C278.026 378.192 278.901 377.978 279.698 377.55C280.51 377.122 281.185 376.536 281.722 375.791C282.278 375.031 282.654 374.159 282.85 373.177C283.047 372.195 283.026 371.331 282.787 370.587C282.551 369.826 282.121 369.232 281.495 368.804C280.87 368.376 280.064 368.162 279.079 368.162C278.109 368.162 277.218 368.376 276.406 368.804C275.609 369.232 274.933 369.826 274.377 370.587C273.84 371.331 273.473 372.195 273.277 373.177ZM268.939 373.177C269.195 371.894 269.656 370.721 270.321 369.66C271.002 368.598 271.832 367.679 272.811 366.903C273.79 366.127 274.879 365.532 276.076 365.12C277.276 364.693 278.523 364.479 279.815 364.479C281.124 364.479 282.285 364.693 283.298 365.12C284.331 365.532 285.182 366.127 285.85 366.903C286.519 367.679 286.973 368.598 287.214 369.66C287.454 370.721 287.445 371.894 287.189 373.177C286.932 374.46 286.47 375.641 285.802 376.718C285.15 377.796 284.333 378.73 283.351 379.523C282.384 380.315 281.299 380.933 280.096 381.376C278.895 381.804 277.633 382.018 276.308 382.018C274.967 382.018 273.781 381.804 272.752 381.376C271.726 380.933 270.88 380.315 270.214 379.523C269.565 378.73 269.122 377.796 268.885 376.718C268.664 375.641 268.682 374.46 268.939 373.177ZM296.364 374.841C296.494 374.191 296.464 373.692 296.275 373.343C296.103 372.995 295.726 372.821 295.144 372.821C294.756 372.821 294.401 372.9 294.078 373.058C293.756 373.217 293.484 373.446 293.262 373.747C293.04 374.048 292.887 374.413 292.801 374.841L291.47 381.495H287.786L289.973 370.563H293.657L293.329 372.203C293.772 371.601 294.302 371.133 294.918 370.8C295.55 370.468 296.278 370.301 297.102 370.301C298.492 370.301 299.428 370.666 299.913 371.395C300.397 372.123 300.508 373.145 300.245 374.46L298.838 381.495H295.033L296.364 374.841ZM307.351 381.733C306.058 381.733 304.981 381.503 304.12 381.044C303.278 380.568 302.684 379.903 302.338 379.047C301.992 378.192 301.934 377.186 302.166 376.029C302.4 374.857 302.853 373.843 303.525 372.987C304.197 372.131 305.048 371.474 306.077 371.014C307.122 370.555 308.291 370.325 309.584 370.325C310.876 370.325 311.923 370.547 312.723 370.991C313.526 371.418 314.079 372.044 314.383 372.868C314.687 373.692 314.721 374.69 314.487 375.863C314.452 376.037 314.417 376.211 314.382 376.385C314.351 376.544 314.308 376.679 314.253 376.789H304.074L304.473 374.793H311.356L310.265 375.886C310.368 375.775 310.46 375.641 310.54 375.482C310.639 375.308 310.7 375.165 310.722 375.055C310.817 374.579 310.811 374.167 310.703 373.819C310.595 373.47 310.398 373.201 310.113 373.011C309.828 372.821 309.467 372.726 309.031 372.726C308.482 372.726 307.997 372.844 307.578 373.082C307.159 373.32 306.803 373.684 306.511 374.175C306.238 374.651 306.021 375.253 305.859 375.981C305.726 376.647 305.709 377.217 305.808 377.693C305.907 378.168 306.125 378.532 306.462 378.786C306.802 379.023 307.255 379.142 307.82 379.142C308.467 379.142 309.04 379.023 309.54 378.786C310.056 378.548 310.499 378.192 310.868 377.716L313.984 378.501C313.186 379.578 312.233 380.386 311.124 380.925C310.03 381.463 308.773 381.733 307.351 381.733ZM326.577 364.859H330.673L327.346 381.495H323.25L326.577 364.859ZM328.486 368.162L329.146 364.859H332.467C333.905 364.859 335.064 365.081 335.945 365.524C336.845 365.952 337.465 366.57 337.804 367.378C338.143 368.186 338.199 369.161 337.971 370.301C337.749 371.41 337.305 372.377 336.639 373.201C335.977 374.009 335.108 374.635 334.034 375.078C332.979 375.506 331.733 375.72 330.294 375.72H326.974L327.635 372.417H330.955C331.779 372.417 332.462 372.234 333.003 371.87C333.545 371.506 333.884 370.983 334.02 370.301C334.159 369.604 334.031 369.073 333.636 368.709C333.24 368.345 332.63 368.162 331.806 368.162H328.486ZM340.773 378.073C340.716 378.358 340.74 378.604 340.844 378.81C340.951 379 341.115 379.15 341.335 379.261C341.559 379.356 341.816 379.404 342.107 379.404C342.527 379.404 342.932 379.317 343.322 379.142C343.713 378.968 344.056 378.707 344.352 378.358C344.648 378.009 344.846 377.582 344.948 377.075L345.05 378.501C344.911 379.198 344.598 379.792 344.112 380.283C343.629 380.758 343.056 381.123 342.391 381.376C341.729 381.614 341.043 381.733 340.332 381.733C339.621 381.733 338.984 381.606 338.421 381.353C337.877 381.083 337.471 380.687 337.204 380.164C336.953 379.641 336.902 379.008 337.051 378.263C337.26 377.217 337.805 376.393 338.685 375.791C339.568 375.173 340.704 374.864 342.094 374.864C342.772 374.864 343.365 374.928 343.873 375.055C344.397 375.181 344.834 375.34 345.184 375.53C345.534 375.72 345.785 375.918 345.938 376.124L345.619 377.716C345.288 377.431 344.879 377.217 344.39 377.075C343.921 376.916 343.404 376.837 342.838 376.837C342.402 376.837 342.045 376.885 341.768 376.98C341.49 377.075 341.268 377.217 341.1 377.407C340.936 377.582 340.827 377.803 340.773 378.073ZM339.981 373.914L339.225 371.513C339.916 371.212 340.732 370.927 341.675 370.658C342.617 370.389 343.614 370.254 344.664 370.254C345.649 370.254 346.502 370.396 347.22 370.682C347.942 370.951 348.477 371.347 348.824 371.87C349.172 372.393 349.27 373.034 349.118 373.795L347.578 381.495H344.064L345.442 374.603C345.496 374.334 345.493 374.104 345.434 373.914C345.395 373.708 345.3 373.534 345.151 373.391C345.002 373.248 344.796 373.145 344.534 373.082C344.289 373.019 343.996 372.987 343.657 372.987C343.156 372.987 342.652 373.042 342.145 373.153C341.654 373.264 341.215 373.399 340.828 373.557C340.444 373.7 340.162 373.819 339.981 373.914ZM351.718 377.526C352.191 377.986 352.628 378.35 353.026 378.619C353.444 378.873 353.82 379.055 354.153 379.166C354.489 379.261 354.787 379.309 355.045 379.309C355.417 379.309 355.707 379.229 355.917 379.071C356.126 378.913 356.256 378.707 356.307 378.453C356.355 378.215 356.322 378.017 356.208 377.859C356.097 377.685 355.88 377.518 355.556 377.36C355.249 377.201 354.813 377.035 354.25 376.861C353.755 376.671 353.291 376.449 352.857 376.195C352.442 375.926 352.125 375.569 351.907 375.126C351.689 374.682 351.649 374.112 351.789 373.415C351.922 372.749 352.212 372.187 352.66 371.727C353.123 371.268 353.686 370.919 354.347 370.682C355.025 370.444 355.768 370.325 356.575 370.325C357.222 370.325 357.805 370.396 358.326 370.539C358.863 370.682 359.35 370.872 359.787 371.109C360.241 371.347 360.654 371.624 361.027 371.941L359.252 374.27C358.869 373.843 358.406 373.494 357.862 373.225C357.321 372.939 356.8 372.797 356.299 372.797C355.96 372.797 355.689 372.86 355.486 372.987C355.299 373.114 355.185 373.28 355.143 373.486C355.096 373.724 355.153 373.922 355.315 374.08C355.494 374.239 355.755 374.389 356.098 374.532C356.46 374.658 356.895 374.825 357.404 375.031C357.944 375.237 358.43 375.474 358.861 375.744C359.308 376.013 359.635 376.354 359.844 376.766C360.068 377.178 360.113 377.724 359.976 378.406C359.742 379.578 359.193 380.465 358.329 381.067C357.485 381.654 356.4 381.947 355.075 381.947C354.267 381.947 353.535 381.852 352.878 381.661C352.234 381.487 351.652 381.25 351.13 380.948C350.612 380.632 350.14 380.283 349.716 379.903L351.718 377.526ZM362.771 377.526C363.245 377.986 363.681 378.35 364.079 378.619C364.497 378.873 364.873 379.055 365.206 379.166C365.542 379.261 365.84 379.309 366.098 379.309C366.47 379.309 366.761 379.229 366.97 379.071C367.179 378.913 367.31 378.707 367.36 378.453C367.408 378.215 367.375 378.017 367.261 377.859C367.15 377.685 366.933 377.518 366.609 377.36C366.302 377.201 365.866 377.035 365.304 376.861C364.808 376.671 364.344 376.449 363.91 376.195C363.495 375.926 363.179 375.569 362.96 375.126C362.742 374.682 362.703 374.112 362.842 373.415C362.975 372.749 363.265 372.187 363.713 371.727C364.176 371.268 364.739 370.919 365.4 370.682C366.078 370.444 366.821 370.325 367.629 370.325C368.275 370.325 368.858 370.396 369.379 370.539C369.916 370.682 370.403 370.872 370.841 371.109C371.294 371.347 371.707 371.624 372.08 371.941L370.305 374.27C369.922 373.843 369.459 373.494 368.915 373.225C368.374 372.939 367.853 372.797 367.352 372.797C367.013 372.797 366.742 372.86 366.539 372.987C366.352 373.114 366.238 373.28 366.197 373.486C366.149 373.724 366.206 373.922 366.369 374.08C366.547 374.239 366.808 374.389 367.151 374.532C367.513 374.658 367.949 374.825 368.457 375.031C368.997 375.237 369.483 375.474 369.914 375.744C370.361 376.013 370.688 376.354 370.897 376.766C371.122 377.178 371.166 377.724 371.029 378.406C370.795 379.578 370.246 380.465 369.382 381.067C368.538 381.654 367.453 381.947 366.128 381.947C365.32 381.947 364.588 381.852 363.931 381.661C363.288 381.487 362.705 381.25 362.184 380.948C361.665 380.632 361.194 380.283 360.769 379.903L362.771 377.526ZM375.215 366.451C375.329 365.881 375.631 365.421 376.121 365.073C376.614 364.709 377.151 364.526 377.733 364.526C378.331 364.526 378.795 364.709 379.126 365.073C379.477 365.421 379.595 365.881 379.481 366.451C379.367 367.022 379.063 367.489 378.57 367.854C378.093 368.218 377.556 368.4 376.958 368.4C376.376 368.4 375.912 368.218 375.565 367.854C375.218 367.489 375.101 367.022 375.215 366.451ZM374.756 370.563H378.295L376.108 381.495H372.57L374.756 370.563ZM379.562 376.029C379.793 374.872 380.269 373.866 380.989 373.011C381.71 372.155 382.602 371.49 383.667 371.014C384.731 370.539 385.869 370.301 387.081 370.301C388.293 370.301 389.328 370.539 390.186 371.014C391.061 371.49 391.687 372.155 392.065 373.011C392.46 373.866 392.541 374.872 392.31 376.029C392.082 377.17 391.599 378.168 390.863 379.023C390.142 379.879 389.25 380.544 388.185 381.02C387.137 381.495 386.007 381.733 384.795 381.733C383.583 381.733 382.54 381.495 381.666 381.02C380.791 380.544 380.165 379.879 379.787 379.023C379.408 378.168 379.333 377.17 379.562 376.029ZM383.318 376.029C383.204 376.599 383.227 377.09 383.387 377.502C383.55 377.899 383.803 378.207 384.147 378.429C384.49 378.651 384.904 378.762 385.389 378.762C385.858 378.762 386.308 378.651 386.74 378.429C387.188 378.207 387.565 377.899 387.871 377.502C388.196 377.09 388.415 376.599 388.529 376.029C388.643 375.459 388.62 374.967 388.46 374.555C388.316 374.144 388.065 373.827 387.705 373.605C387.362 373.383 386.956 373.272 386.487 373.272C386.002 373.272 385.544 373.383 385.112 373.605C384.68 373.827 384.301 374.144 383.976 374.555C383.652 374.967 383.432 375.459 383.318 376.029ZM401.996 374.841C402.126 374.191 402.096 373.692 401.908 373.343C401.735 372.995 401.358 372.821 400.776 372.821C400.388 372.821 400.033 372.9 399.711 373.058C399.388 373.217 399.116 373.446 398.894 373.747C398.672 374.048 398.519 374.413 398.433 374.841L397.102 381.495H393.418L395.605 370.563H399.289L398.961 372.203C399.404 371.601 399.934 371.133 400.55 370.8C401.182 370.468 401.91 370.301 402.734 370.301C404.124 370.301 405.061 370.666 405.545 371.395C406.029 372.123 406.14 373.145 405.877 374.46L404.47 381.495H400.665L401.996 374.841Z" fill="#252C33"/>
</svg>
