<?xml version="1.0" standalone="no"?>
<!DOCTYPE svg PUBLIC "-//W3C//DTD SVG 20010904//EN"
 "http://www.w3.org/TR/2001/REC-SVG-20010904/DTD/svg10.dtd">
<svg version="1.0" xmlns="http://www.w3.org/2000/svg"
 width="1280.000000pt" height="912.000000pt" viewBox="0 0 1280.000000 912.000000"
 preserveAspectRatio="xMidYMid meet">
<metadata>
Created by potrace 1.15, written by Peter Selinger 2001-2017
</metadata>
<g transform="translate(0.000000,912.000000) scale(0.100000,-0.100000)"
fill="#000000" stroke="none">
<path d="M3683 9097 c-71 -31 -89 -50 -134 -139 -45 -89 -45 -90 -22 -189 15
-69 21 -79 83 -144 36 -38 82 -92 101 -120 l35 -50 -90 0 c-77 0 -100 -5 -146
-26 -59 -28 -151 -117 -209 -202 -83 -121 -605 -1029 -703 -1222 -14 -27 -33
-63 -42 -80 -24 -46 -21 -123 9 -179 l25 -47 -25 -37 c-57 -83 -94 -277 -76
-403 15 -109 39 -174 84 -225 61 -69 105 -88 211 -89 83 -1 89 0 99 22 6 13
21 26 33 29 13 3 28 12 35 20 9 11 21 4 65 -40 l53 -54 -38 -94 c-32 -79 -43
-96 -72 -111 -19 -9 -123 -60 -232 -113 -176 -84 -198 -97 -195 -117 2 -15 48
-55 145 -127 78 -58 144 -110 147 -117 6 -15 -271 -674 -294 -697 -5 -5 -57
-2 -127 8 -212 30 -452 17 -672 -34 -126 -30 -286 -85 -366 -126 -38 -20 -101
-52 -140 -71 -77 -38 -167 -102 -160 -114 3 -4 20 -10 40 -13 38 -8 53 -22 36
-39 -7 -7 -26 -7 -65 3 -29 7 -69 10 -88 6 -32 -6 -130 -79 -137 -101 -1 -5
30 -18 69 -27 40 -9 75 -20 79 -23 3 -4 -4 -14 -15 -23 -240 -188 -333 -275
-447 -416 -115 -144 -208 -289 -287 -451 -291 -594 -328 -1306 -98 -1885 147
-369 380 -676 694 -912 103 -78 341 -204 438 -233 28 -8 52 -19 55 -23 3 -4
69 -23 146 -41 l139 -34 291 6 c363 7 555 23 573 48 7 10 28 21 47 25 20 3 38
10 41 15 3 5 75 42 160 83 171 83 252 133 396 248 271 216 459 450 626 780
178 352 252 674 252 1099 0 202 -18 353 -65 535 -20 74 -36 140 -38 147 -2 14
54 16 121 4 42 -7 42 -7 42 24 0 49 -46 171 -127 339 -79 164 -181 327 -294
468 -44 55 -67 92 -64 102 14 35 55 184 55 199 0 9 4 22 9 30 7 11 14 10 37
-6 16 -11 41 -28 57 -37 15 -9 77 -92 139 -184 101 -151 113 -174 130 -247 30
-133 42 -145 97 -106 29 21 105 57 190 91 50 19 61 20 145 10 116 -14 214 -38
245 -60 20 -14 28 -37 47 -127 18 -90 57 -211 98 -304 5 -13 -11 -28 -71 -66
-105 -67 -149 -107 -195 -177 -78 -121 -105 -271 -72 -399 22 -87 46 -128 119
-208 48 -52 66 -80 72 -111 l8 -42 160 -63 c88 -34 167 -63 175 -63 8 0 67
-13 130 -29 63 -16 149 -34 190 -41 41 -6 134 -23 205 -38 110 -23 148 -26
250 -23 305 11 309 10 430 -38 61 -24 173 -66 250 -92 77 -27 169 -60 205 -74
36 -13 137 -43 225 -67 146 -39 171 -42 285 -43 197 0 284 35 539 220 19 14
42 38 51 53 44 70 42 70 294 78 208 6 231 9 248 26 18 18 29 19 101 13 127
-11 146 -28 212 -195 133 -340 405 -669 730 -883 155 -102 415 -217 492 -217
15 0 42 -9 59 -19 53 -32 127 -41 352 -41 242 0 387 19 512 67 36 14 90 34
120 45 188 69 245 100 417 229 305 230 498 449 657 750 66 124 161 359 182
448 8 35 22 77 29 92 8 15 22 65 30 111 46 243 48 273 49 513 1 209 -2 258
-22 375 -40 227 -101 449 -147 529 -14 23 -25 51 -25 60 0 30 -65 152 -174
327 -35 57 -201 248 -272 314 -164 152 -315 258 -472 332 -92 44 -147 64 -308
112 -64 19 -238 46 -299 46 -28 0 -45 4 -45 12 0 6 30 43 67 81 l67 69 -28 23
c-16 13 -25 28 -22 34 4 6 2 11 -4 11 -6 0 -14 -10 -19 -23 -5 -13 -20 -31
-33 -39 -13 -9 -57 -46 -97 -82 -80 -74 -110 -90 -153 -81 -16 4 -34 2 -41 -3
-13 -10 -97 -25 -97 -17 0 3 14 24 30 47 19 26 30 52 28 67 -3 22 -11 27 -58
38 -30 7 -90 15 -133 19 l-78 7 -91 96 c-89 95 -158 185 -158 207 0 27 57 96
99 121 25 15 100 65 166 111 66 46 129 88 140 93 11 5 112 50 225 100 113 50
249 106 303 125 54 19 119 45 145 58 26 13 76 33 112 44 36 12 90 29 120 40
46 16 72 18 154 12 95 -6 101 -7 123 -35 13 -17 44 -75 68 -130 78 -173 127
-247 448 -670 146 -193 198 -252 261 -305 174 -143 193 -166 300 -381 54 -109
95 -202 92 -208 -4 -6 -20 -11 -35 -11 -54 0 -73 -55 -43 -123 18 -39 25 -45
68 -56 26 -7 109 -15 184 -18 l136 -6 22 28 c12 15 22 39 22 54 0 31 -35 91
-53 91 -43 0 -183 23 -194 32 -10 8 -13 55 -13 182 0 248 -4 263 -120 497 -59
117 -100 213 -100 230 0 16 7 46 15 66 16 38 19 81 7 99 -12 19 -50 34 -85 34
-20 0 -40 7 -49 18 -14 16 -141 278 -202 416 -14 32 -26 73 -26 91 0 30 3 33
41 39 94 15 148 60 135 111 -10 39 -82 67 -176 69 l-75 1 3 -32 c1 -18 -2 -33
-8 -33 -5 0 -10 14 -10 31 0 23 -5 32 -21 36 -11 3 -18 11 -15 19 7 19 -58 69
-131 100 -35 15 -63 30 -63 34 0 4 51 33 114 63 121 59 146 83 146 144 0 56
10 67 88 102 97 44 112 57 112 95 -1 62 -56 170 -92 182 -10 3 -57 -11 -105
-30 l-88 -36 -40 30 c-69 53 -103 64 -158 51 -26 -6 -66 -20 -89 -31 -23 -11
-43 -20 -45 -20 -30 0 109 145 400 418 140 132 237 245 237 278 0 34 -73 94
-114 94 -60 0 -98 -11 -91 -28 4 -12 -2 -13 -40 -8 -33 5 -86 -1 -198 -24 -83
-18 -160 -37 -170 -42 -14 -7 -26 -3 -53 19 -65 52 -95 63 -169 63 -155 0
-385 -34 -920 -135 -187 -35 -394 -73 -460 -85 -66 -12 -138 -29 -160 -39 -47
-21 -105 -82 -136 -143 -12 -24 -48 -86 -80 -138 -32 -53 -74 -130 -94 -172
-26 -57 -45 -84 -77 -107 -49 -37 -57 -37 -108 -11 -22 11 -50 20 -62 20 -13
0 -105 -47 -206 -104 -100 -57 -258 -138 -350 -180 -92 -43 -198 -93 -237
-111 -169 -81 -210 -93 -385 -110 -80 -8 -165 -17 -190 -21 l-45 -6 -31 54
c-17 29 -52 91 -79 138 -60 107 -138 216 -271 377 -83 101 -104 133 -104 158
0 45 -33 71 -105 84 -106 18 -360 32 -502 28 -173 -7 -514 -34 -571 -47 -23
-6 -78 -10 -121 -10 -102 0 -198 -19 -433 -85 -337 -94 -607 -190 -871 -309
-49 -22 -58 -24 -63 -11 -11 27 16 75 42 75 26 0 53 34 77 100 21 56 21 84 2
100 -16 14 -11 30 9 30 8 0 16 -9 19 -20 7 -27 43 -26 50 1 5 19 11 20 72 14
37 -3 88 -13 113 -22 38 -12 69 -14 156 -9 144 9 182 30 201 109 6 23 11 26
29 20 11 -4 44 -6 71 -5 28 2 66 -2 85 -8 32 -9 37 -8 57 17 20 24 24 26 48
15 37 -17 43 -15 60 18 9 17 22 30 30 30 26 0 55 38 55 71 l0 32 63 -6 c141
-15 375 -55 404 -71 48 -24 160 -17 245 15 79 31 47 168 -49 211 -33 15 -73
20 -156 23 -64 2 -190 17 -292 34 -246 42 -233 38 -251 73 -9 17 -35 50 -58
73 l-41 42 -128 6 c-84 4 -136 3 -149 -4 -25 -14 -56 -3 -40 13 9 9 6 19 -15
40 -24 25 -27 37 -31 113 l-5 85 44 40 c91 82 345 280 378 296 26 12 49 15 95
10 146 -15 167 -19 180 -37 7 -10 44 -33 82 -51 66 -32 74 -33 189 -33 108 1
136 5 279 43 87 23 168 50 179 59 18 17 19 27 13 133 -9 155 -24 242 -44 262
-15 15 -201 86 -367 140 -79 25 -134 17 -235 -33 -87 -44 -134 -90 -149 -146
-49 -176 -41 -163 -140 -234 -30 -21 -62 -39 -70 -39 -9 0 -36 -12 -60 -25
-54 -31 -373 -288 -405 -326 -17 -20 -25 -45 -30 -96 -17 -177 -30 -279 -37
-294 -6 -12 -29 -18 -85 -22 -53 -4 -92 -14 -131 -32 -40 -20 -58 -24 -66 -16
-29 29 -107 -6 -107 -49 0 -10 -5 -22 -11 -25 -7 -5 -9 4 -7 25 3 29 0 33 -22
36 -71 8 -150 -22 -346 -131 -48 -27 -54 -28 -119 -19 -67 9 -95 27 -58 36 10
3 33 33 51 66 37 68 37 90 0 190 -16 43 -17 56 -7 68 14 17 4 30 -26 36 -11 2
-30 23 -44 48 -13 25 -45 79 -71 120 -27 41 -62 105 -79 141 -29 62 -121 179
-189 242 -17 15 -44 45 -61 66 l-31 39 46 7 c43 6 47 10 66 53 20 43 20 52 9
142 -29 222 -78 376 -132 413 -31 22 -53 21 -116 -6z m1111 -1606 c15 -28 15
-29 -53 -95 -38 -36 -72 -66 -75 -66 -16 0 -156 64 -156 71 0 9 87 63 137 85
21 9 58 19 83 24 25 4 46 8 47 9 1 0 9 -12 17 -28z m249 -80 c16 -6 26 -20 30
-39 7 -35 26 -42 77 -29 19 4 45 11 57 14 13 3 35 2 50 -2 25 -6 24 -7 -30
-35 -31 -15 -71 -31 -89 -35 -18 -4 -53 -13 -78 -21 -48 -15 -232 -45 -239
-38 -6 6 173 193 186 193 6 1 23 -3 36 -8z m283 -218 c6 -21 2 -31 -20 -50
-30 -25 -64 -28 -215 -16 l-83 6 148 43 c82 23 152 43 156 43 4 1 11 -11 14
-26z m6572 -1352 c7 -9 34 -54 59 -101 25 -47 59 -107 75 -134 l30 -49 -89 6
c-48 4 -89 10 -91 14 -1 4 -36 66 -76 138 -56 98 -72 133 -63 143 15 19 137 6
155 -17z m-2291 -446 c12 -8 32 -32 44 -52 13 -21 54 -72 91 -113 l69 -74 -33
-12 c-18 -6 -70 -17 -116 -23 -83 -12 -84 -12 -118 14 -63 48 -154 149 -154
172 0 27 47 61 115 85 62 21 75 22 102 3z m2513 -20 l46 -6 56 -97 c31 -53 81
-136 112 -184 30 -49 51 -88 47 -88 -5 0 -14 7 -21 15 -15 18 -42 19 -88 3
-32 -12 -36 -11 -54 12 -34 43 -216 345 -212 352 3 4 19 5 37 3 17 -3 52 -7
77 -10z m-2831 -139 c15 -8 49 -40 75 -70 26 -31 60 -63 77 -73 16 -9 29 -20
29 -24 0 -3 -21 -14 -47 -24 -27 -10 -113 -51 -192 -91 -79 -40 -147 -71 -151
-69 -4 3 -10 23 -14 46 -6 36 0 58 40 153 25 61 54 119 63 130 32 36 76 44
120 22z m-592 -268 c15 -24 34 -49 42 -56 9 -7 16 -25 16 -40 0 -23 5 -27 33
-30 29 -3 33 -6 28 -25 -7 -31 4 -45 39 -49 44 -5 43 -30 -4 -61 -56 -37 -246
-228 -321 -322 -34 -44 -98 -132 -140 -195 -42 -63 -84 -121 -92 -127 -12 -10
-20 -5 -45 30 -16 24 -33 54 -36 68 -4 13 -49 64 -102 112 -82 76 -94 91 -85
108 14 25 -26 105 -68 136 l-29 22 14 68 c9 37 23 76 32 85 12 13 303 152 641
305 40 19 48 15 77 -29z m3676 -33 c45 0 62 -4 72 -18 8 -11 12 -24 10 -30 -2
-7 -13 -45 -25 -84 -11 -40 -25 -73 -30 -73 -5 0 -25 30 -44 68 -19 37 -44 81
-55 97 -26 38 -28 60 -3 49 9 -4 43 -8 75 -9z m-9232 -195 c76 -135 89 -163
89 -193 0 -36 -78 -214 -98 -222 -21 -8 -32 3 -32 31 0 14 -16 80 -35 147 -49
166 -51 191 -25 252 25 59 40 79 51 68 4 -4 27 -42 50 -83z m-124 -284 c12
-49 23 -93 23 -97 0 -6 -127 45 -138 56 -2 2 14 39 35 83 44 94 44 94 80 -42z
m558 -218 l26 -23 -21 -95 c-18 -84 -38 -150 -45 -150 -1 0 -18 15 -38 34
l-36 34 24 68 c14 38 25 79 25 92 0 27 17 62 30 62 5 0 21 -10 35 -22z m6973
-64 c14 -3 30 -20 44 -48 l21 -44 -26 -249 c-29 -270 -38 -318 -67 -333 -10
-5 -90 -13 -177 -16 l-159 -7 -17 79 c-30 141 -59 337 -60 411 -3 118 36 152
219 188 63 13 117 25 119 27 5 4 67 0 103 -8z m329 -130 c95 -64 143 -114 143
-150 0 -18 -29 -53 -118 -139 -65 -63 -131 -124 -145 -135 l-27 -21 1 63 c2
240 26 438 53 438 6 0 48 -25 93 -56z m-914 -91 c4 -27 14 -126 23 -221 18
-181 14 -222 -22 -222 -21 0 -270 185 -278 207 -4 9 5 33 20 57 38 58 211 226
233 226 15 0 20 -10 24 -47z m-5488 -174 c33 -4 78 -14 99 -22 35 -13 37 -15
18 -21 -20 -7 -195 9 -234 20 -10 3 -18 15 -18 26 0 18 4 19 38 13 20 -4 64
-11 97 -16z m6673 -21 c35 -38 128 -242 156 -346 15 -53 34 -110 42 -125 15
-31 6 -60 -25 -84 -31 -24 -55 -14 -90 37 -45 66 -136 152 -191 181 -25 12
-77 32 -115 43 -39 12 -72 25 -73 29 -4 11 250 285 264 286 6 1 20 -9 32 -21z
m-1419 -195 c45 -37 81 -70 81 -74 0 -4 -15 -9 -32 -11 -26 -4 -52 5 -120 41
l-87 47 25 32 c14 18 32 32 39 32 8 0 50 -30 94 -67z m-8204 -143 c-2 -21 -9
-80 -15 -130 -6 -50 -19 -115 -29 -145 -12 -34 -17 -68 -14 -97 5 -42 -37
-320 -58 -385 -21 -66 -27 -63 -173 93 -223 238 -225 258 -48 445 93 98 152
148 261 222 70 49 83 48 76 -3z m3541 -37 c-2 -16 -10 -29 -20 -31 -19 -4 -21
11 -4 38 18 28 27 25 24 -7z m4459 -22 c3 -6 46 -31 96 -57 110 -58 116 -65
94 -98 -27 -41 -82 -36 -180 18 -85 47 -85 46 -64 114 10 31 40 44 54 23z
m1373 -88 c21 -16 27 -28 26 -58 -1 -22 -9 -45 -21 -56 -18 -19 -22 -19 -78
-4 -32 8 -63 19 -68 24 -12 12 -21 86 -13 107 9 24 116 15 154 -13z m-7858
-147 c0 -36 72 -171 100 -189 32 -19 23 -25 -37 -23 -52 1 -59 4 -71 29 -10
21 -20 27 -46 27 -55 0 -61 19 -30 92 45 109 53 121 70 107 8 -6 14 -26 14
-43z m8328 -188 c-1 -90 -3 -136 -5 -103 -1 33 -10 100 -19 148 -16 85 -16 88
2 102 11 8 20 15 22 15 1 0 1 -73 0 -162z m-6305 -41 c18 -19 71 -99 85 -129
2 -3 -37 -28 -85 -54 -48 -25 -116 -65 -151 -87 -61 -38 -63 -39 -82 -22 -26
23 -43 86 -35 129 14 73 65 122 173 166 61 25 69 24 95 -3z m-4036 -44 c17
-21 63 -74 103 -118 77 -86 136 -170 146 -209 7 -29 -8 -61 -39 -80 -22 -15
-283 -46 -386 -46 l-54 0 6 48 c12 102 118 382 161 425 24 24 28 22 63 -20z
m8448 -113 c39 -6 85 -15 103 -21 43 -14 37 -20 -89 -104 -125 -83 -129 -82
-129 52 0 94 0 95 23 90 12 -3 54 -11 92 -17z m-7839 -180 c8 -16 5 -60 -3
-74 -17 -27 -43 126 -28 161 6 14 10 7 16 -27 5 -25 12 -52 15 -60z m9703 -11
c-39 -168 -112 -354 -195 -495 -18 -31 -19 -31 -44 -16 -14 9 -42 29 -63 45
-44 34 -43 38 44 99 62 43 155 160 201 253 24 47 50 126 63 189 3 15 8 26 11
23 3 -2 -5 -47 -17 -98z m-3211 42 c9 -6 82 -28 162 -51 94 -26 151 -47 161
-60 10 -12 20 -48 24 -92 4 -40 12 -84 19 -98 6 -14 12 -49 11 -79 0 -52 -2
-55 -30 -63 -39 -11 -259 0 -305 16 -37 13 -156 100 -163 120 -3 7 -1 32 4 57
4 24 8 85 9 136 0 69 4 95 16 107 17 18 65 21 92 7z m1566 -95 c21 -38 59 -85
93 -114 51 -45 55 -52 43 -67 -25 -30 -160 -9 -295 46 -92 37 -116 50 -113 61
5 14 206 137 225 138 6 0 27 -29 47 -64z m1385 -2 c2 -2 -4 -22 -14 -44 -22
-48 -105 -130 -164 -160 -41 -20 -44 -21 -62 -4 -40 36 -21 70 68 127 23 14
54 42 69 61 24 30 32 34 63 29 20 -3 38 -7 40 -9z m-6014 -66 c33 -15 32 -24
-5 -43 -60 -31 -93 -15 -53 27 31 33 25 31 58 16z m-3788 -140 c-32 -295 -32
-301 -8 -435 13 -71 26 -133 28 -140 2 -6 -6 -14 -19 -18 -13 -4 -99 -34 -193
-67 -203 -71 -240 -73 -267 -18 -60 122 -89 575 -42 647 21 33 70 43 284 57
107 7 201 14 209 15 10 1 12 -10 8 -41z m273 -44 c0 -11 -28 -33 -34 -27 -3 4
-6 17 -6 30 0 21 3 22 20 13 11 -6 20 -13 20 -16z m7974 -38 c104 -65 195
-105 271 -119 l67 -13 -113 -122 c-62 -67 -116 -122 -119 -122 -6 0 -79 118
-108 175 -29 59 -92 217 -92 232 0 21 19 15 94 -31z m-6874 -56 c25 -25 25
-32 1 -61 -17 -21 -21 -22 -50 -10 -31 13 -39 38 -25 75 9 22 50 20 74 -4z
m-1083 -107 c-11 -11 -47 38 -47 65 0 25 2 25 26 -16 14 -24 24 -46 21 -49z
m8773 53 c47 -8 115 -17 152 -21 109 -11 120 -16 124 -55 8 -76 35 -257 44
-290 6 -19 10 -55 10 -80 0 -40 -5 -51 -37 -82 -57 -54 -176 -89 -313 -91
l-105 -2 -23 46 -23 47 16 178 c15 178 32 313 41 347 6 21 7 21 114 3z m-8797
-137 c28 -24 29 -28 16 -46 -14 -20 -18 -17 -97 68 -46 49 -81 93 -77 99 4 6
33 -13 67 -42 34 -29 75 -65 91 -79z m1288 104 c56 -27 65 -53 20 -53 -30 0
-61 30 -61 57 0 16 0 16 41 -4z m8137 -27 c31 -24 69 -57 84 -73 l28 -29 -64
-79 c-68 -85 -178 -195 -195 -195 -12 0 -16 24 -36 198 -23 203 -26 188 48
205 34 9 66 16 70 16 5 1 34 -19 65 -43z m-928 -233 c-5 -128 -13 -239 -16
-247 -15 -38 -95 -5 -228 94 -70 51 -76 70 -40 122 39 55 276 280 286 270 5
-5 4 -112 -2 -239z m-6805 41 c-29 -109 -94 -281 -125 -331 -11 -18 -27 -33
-35 -33 -17 0 -21 25 -5 35 31 19 160 312 160 364 0 22 21 74 27 67 2 -2 -8
-48 -22 -102z m-171 56 c19 -47 20 -60 6 -60 -11 0 -24 29 -36 75 -10 40 12
29 30 -15z m-97 5 c2 -1 -9 -30 -23 -66 -23 -56 -25 -72 -19 -134 10 -102 -8
-72 -44 76 -17 70 -31 129 -31 131 0 4 112 -2 117 -7z m-409 -59 c11 -12 -106
-116 -130 -116 -26 0 -58 27 -58 49 0 9 19 32 43 50 37 29 48 32 90 28 26 -2
51 -7 55 -11z m97 -245 l0 -163 -27 -21 c-14 -12 -44 -36 -66 -54 -21 -17 -57
-63 -80 -101 -22 -38 -48 -75 -58 -83 -15 -12 -16 -11 -9 21 4 19 13 42 20 50
17 20 94 175 99 197 1 10 13 40 25 66 12 26 34 95 49 153 15 57 31 103 37 101
6 -2 10 -66 10 -166z m136 63 l37 -36 -34 -50 c-36 -54 -72 -154 -81 -230 -4
-32 -11 -48 -20 -48 -15 0 -14 33 4 65 13 25 22 83 28 183 6 95 15 152 23 152
3 0 23 -16 43 -36z m-981 -5 c109 -11 160 -27 160 -49 0 -6 -8 -10 -19 -10
-10 0 -24 -6 -31 -14 -6 -8 -17 -13 -24 -10 -7 3 -41 -2 -77 -11 -115 -27
-132 -22 -175 52 -18 32 -18 33 1 47 11 9 27 13 35 11 8 -2 67 -9 130 -16z
m689 -56 c-39 -149 -86 -266 -117 -290 -22 -18 -79 -16 -86 2 -8 22 9 61 48
108 18 23 59 81 91 130 32 48 61 87 66 87 4 0 3 -17 -2 -37z m-1121 -52 c13
-23 18 -41 12 -41 -6 0 -14 -10 -19 -22 -34 -88 -195 -425 -209 -435 -20 -17
-42 -17 -42 0 0 6 -21 37 -46 67 -57 68 -111 148 -154 223 -57 102 -38 119
240 206 90 29 166 54 169 56 7 8 26 -12 49 -54z m962 21 c0 -5 -18 -37 -41
-72 -34 -54 -43 -61 -51 -47 -14 26 -2 51 42 91 41 37 50 42 50 28z m-346 -68
c28 -28 19 -57 -26 -87 -49 -32 -89 -34 -132 -8 -18 10 -61 21 -101 25 -97 9
-135 17 -135 27 0 5 26 9 58 9 31 1 77 5 102 10 25 6 63 12 85 15 22 3 54 9
70 14 45 14 62 13 79 -5z m984 -222 c-18 -20 -44 -55 -58 -77 -48 -79 -232
-245 -320 -290 -47 -24 -47 -24 -78 -5 -18 11 -43 41 -57 70 -24 47 -24 51 -8
57 194 69 333 156 463 287 l85 87 3 -46 c3 -41 -1 -51 -30 -83z m-1417 3 c108
-105 181 -156 293 -205 42 -19 76 -39 76 -46 0 -7 -7 -44 -15 -83 -37 -177
-79 -241 -159 -241 -57 0 -205 49 -320 107 -147 73 -174 108 -156 201 7 31 23
80 37 107 51 102 135 255 140 255 4 0 50 -43 104 -95z m423 34 c-10 -12 -30
-27 -44 -34 -29 -14 -100 -29 -100 -20 0 7 140 75 154 75 5 0 1 -9 -10 -21z
m216 -84 c0 -8 -20 -28 -45 -45 -57 -39 -59 -23 -3 24 47 41 48 41 48 21z
m126 -234 c32 -1 87 -91 87 -141 0 -22 -6 -46 -12 -54 -33 -40 -335 -117 -397
-102 -27 7 -27 8 -20 75 7 82 42 201 62 218 14 10 54 11 280 4z"/>
</g>
</svg>
